SplineFontDB: 3.2
FontName: nasin-koko
FullName: nasin Koko
FamilyName: nasin Koko
Weight: Regular
Copyright: Copyright (c) 2024, neverRare
Version: 0.001
DefaultBaseFilename: nasin-koko
ItalicAngle: 0
UnderlinePosition: 0
UnderlineWidth: 0
Ascent: 1000
Descent: 0
InvalidEm: 0
LayerCount: 2
Layer: 0 0 "Back" 1
Layer: 1 0 "Fore" 0
XUID: [1021 756 1414093791 30187]
FSType: 0
OS2Version: 0
OS2_WeightWidthSlopeOnly: 0
OS2_UseTypoMetrics: 1
CreationTime: 1707897574
ModificationTime: 1725164277
PfmFamily: 33
TTFWeight: 400
TTFWidth: 5
LineGap: 0
VLineGap: 0
Panose: 0 0 6 9 0 0 0 0 0 0
OS2TypoAscent: 1000
OS2TypoAOffset: 0
OS2TypoDescent: 0
OS2TypoDOffset: 0
OS2TypoLinegap: 0
OS2WinAscent: 1000
OS2WinAOffset: 0
OS2WinDescent: 386
OS2WinDOffset: 0
HheadAscent: 1000
HheadAOffset: 0
HheadDescent: -386
HheadDOffset: 0
OS2CapHeight: 1000
OS2Vendor: 'PfEd'
MarkAttachClasses: 1
DEI: 91125

StartChar: uF1900
Encoding: 989440 989440 0
Width: 1000
Flags: W
HStem: -50 91<394.027 509.853 728 748> 253 95<394.598 549>
VStem: 252 102<80.9511 212.813> 446 106<410 850> 549 101<128 253>
LayerCount: 2
Fore
SplineSet
446 410 m 1xf0
 446 850 l 1
 552 850 l 1
 552 410 l 1
 446 410 l 1xf0
451 348 m 1
 650 348 l 1
 650 149 l 1xe8
 652 128 l 1
 660 88 690 56 728 47 c 1
 748 45 l 1
 748 -50 l 1
 686 -50 631 -22 594 22 c 1
 587 32 l 1
 569 10 l 1
 536 -27 489 -50 437 -50 c 0
 335 -50 252 39 252 149 c 0
 252 252 331 337 431 347 c 1
 451 348 l 1
451 253 m 2
 397 253 354 205 354 147 c 0
 354 88 397 41 451 41 c 0
 505 41 549 88 549 147 c 2
 549 253 l 1
 451 253 l 2
EndSplineSet
Validated: 1
EndChar

StartChar: uF1901
Encoding: 989441 989441 1
Width: 1000
Flags: W
HStem: -50 83<447.213 549.61> 118 81<127 282 408 591 717 872> 281 82<127 276 382 617 723 872> 445 81<127 282 408 591 717 872> 610 83<445.718 551.334> 703 147<275.5 379.375 619.5 723.375>
VStem: 254 147<724.625 828.5> 276 106<199 281 363 445> 598 147<724.625 828.5> 610 113<199 279.688 364.266 445> 617 106<200.266 281 363 443.688>
LayerCount: 2
Fore
SplineSet
276 281 m 1xfd20
 127 281 l 1
 127 363 l 1
 276 363 l 1
 276 363 276 365 276 367 c 0
 276 377 276 403 279 433 c 1
 282 445 l 1
 127 445 l 1
 127 526 l 1
 301 526 l 1
 310 553 l 2
 323 583 374 693 499 693 c 0
 548 693 636 675 688 553 c 1
 697 526 l 1
 872 526 l 1
 872 445 l 1
 717 445 l 1
 719 433 l 2
 719 432 723 395 723 371 c 0xfd40
 723 368 723 365 723 363 c 1
 872 363 l 1
 872 281 l 1
 723 281 l 1
 723 261 722 236 719 211 c 2
 717 199 l 1
 872 199 l 1
 872 118 l 1
 697 118 l 1
 688 91 l 2
 675 60 625 -50 500 -50 c 0
 450 -50 362 -31 310 91 c 1
 301 118 l 1
 127 118 l 1
 127 199 l 1
 282 199 l 1
 279 211 l 1
 278 220 276 245 276 281 c 1xfd20
254 777 m 0xfe
 254 817 287 850 327 850 c 0
 368 850 401 817 401 777 c 0
 401 736 368 703 327 703 c 0
 287 703 254 736 254 777 c 0xfe
598 777 m 0xfc80
 598 817 631 850 671 850 c 0
 712 850 745 817 745 777 c 0
 745 736 712 703 671 703 c 0
 631 703 598 736 598 777 c 0xfc80
408 118 m 1
 413 103 l 2
 427 73 454 33 499 33 c 0
 523 33 558 45 585 103 c 2
 591 118 l 1
 408 118 l 1
382 281 m 1xfd20
 384 253 386 226 388 199 c 1
 610 199 l 1xfd40
 612 226 615 253 617 281 c 1
 382 281 l 1xfd20
388 445 m 1
 386 417 384 390 382 363 c 1
 617 363 l 1xfd20
 615 390 612 417 610 445 c 1
 388 445 l 1
499 610 m 0
 475 610 440 599 413 541 c 1
 408 526 l 1
 591 526 l 1
 585 541 l 2
 572 570 545 610 499 610 c 0
EndSplineSet
Validated: 1
EndChar

StartChar: uF1902
Encoding: 989442 989442 2
Width: 1000
Flags: W
LayerCount: 2
Fore
SplineSet
186 850 m 1
 500 479 l 1
 814 849 l 1
 891 784 l 1
 567 400 l 1
 891 16 l 1
 814 -49 l 1
 500 321 l 1
 186 -50 l 1
 109 15 l 1
 434 400 l 1
 109 785 l 1
 186 850 l 1
EndSplineSet
Validated: 1
EndChar

StartChar: uF1903
Encoding: 989443 989443 3
Width: 1000
Flags: W
HStem: 352 96<50 241 347 591 695.102 839>
VStem: 241 106<71 352 448 729> 591 108<287.785 352 448 512.215>
LayerCount: 2
Fore
SplineSet
347 352 m 1
 347 71 l 0
 369 82 560 183 591 352 c 1
 347 352 l 1
591 448 m 1
 560 617 369 718 347 729 c 0
 347 448 l 1
 591 448 l 1
241 824 m 1
 370 824 l 1
 423 796 l 1
 443 782 464 769 484 756 c 1
 604 671 682 564 699 448 c 1
 839 448 l 1
 717 571 l 1
 798 633 l 1
 979 400 l 1
 798 167 l 1
 717 229 l 1
 839 352 l 1
 699 352 l 1
 682 236 604 129 484 44 c 1
 464 31 443 18 423 4 c 1
 370 -24 l 1
 241 -24 l 1
 241 352 l 1
 50 352 l 1
 50 448 l 1
 241 448 l 1
 241 824 l 1
EndSplineSet
Validated: 1
EndChar

StartChar: uF1904
Encoding: 989444 989444 4
Width: 1000
Flags: W
HStem: 183 95<206.486 332.895 667.105 793.514> 520 95<206.486 332.895 667.105 793.514>
VStem: 50 106<329.358 468.836> 844 106<329.358 468.836>
LayerCount: 2
Fore
SplineSet
50 399 m 0
 50 519 147 615 266 615 c 0
 321 615 376 594 418 552 c 2
 500 470 l 1
 582 552 l 2
 624 594 679 615 734 615 c 0
 853 615 950 519 950 399 c 0
 950 280 853 183 734 183 c 0
 679 183 624 204 582 246 c 2
 500 328 l 1
 418 246 l 2
 376 204 321 183 266 183 c 0
 147 183 50 280 50 399 c 0
156 399 m 0
 156 332 207 278 269 278 c 0
 298 278 327 290 349 314 c 2
 429 399 l 1
 349 485 l 2
 327 508 298 520 269 520 c 0
 207 520 156 466 156 399 c 0
844 399 m 0
 844 466 793 520 731 520 c 0
 702 520 673 508 651 485 c 2
 571 399 l 1
 651 314 l 2
 673 290 702 278 731 278 c 0
 793 278 844 332 844 399 c 0
EndSplineSet
Validated: 1
EndChar

StartChar: uF1905
Encoding: 989445 989445 5
Width: 1000
Flags: W
HStem: 45 146<448.125 551.875> 284 95<226 774>
VStem: 120 106<379 684> 427 146<66.125 169.5> 774 106<379 684>
CounterMasks: 1 38
LayerCount: 2
Fore
SplineSet
120 684 m 1
 226 684 l 1
 226 379 l 1
 774 379 l 1
 774 684 l 1
 880 684 l 1
 880 284 l 1
 120 284 l 1
 120 684 l 1
573 118 m 0
 573 77 541 45 500 45 c 0
 459 45 427 77 427 118 c 0
 427 158 459 191 500 191 c 0
 541 191 573 158 573 118 c 0
EndSplineSet
Validated: 1
EndChar

StartChar: uF1906
Encoding: 989446 989446 6
Width: 1000
Flags: W
LayerCount: 2
Fore
SplineSet
826 -50 m 1
 500 210 l 1
 174 -50 l 1
 110 30 l 1
 500 340 l 1
 890 30 l 1
 826 -50 l 1
174 850 m 1
 500 590 l 1
 826 850 l 1
 890 770 l 1
 500 460 l 1
 110 770 l 1
 174 850 l 1
EndSplineSet
Validated: 1
EndChar

StartChar: uF1907
Encoding: 989447 989447 7
Width: 1000
Flags: W
VStem: 448 106<-50 363>
LayerCount: 2
Fore
SplineSet
193 850 m 1
 501 460 l 1
 808 850 l 1
 888 787 l 1
 554 363 l 1
 554 -50 l 1
 448 -50 l 1
 448 363 l 1
 114 787 l 1
 193 850 l 1
EndSplineSet
Validated: 1
EndChar

StartChar: uF1908
Encoding: 989448 989448 8
Width: 1000
Flags: W
HStem: -3 96<78 250 751 924>
LayerCount: 2
Fore
SplineSet
445 804 m 1
 557 804 l 1
 751 93 l 1
 924 93 l 1
 924 -3 l 1
 670 -3 l 1
 501 659 l 1
 332 -3 l 1
 78 -3 l 1
 78 93 l 1
 250 93 l 1
 445 804 l 1
EndSplineSet
Validated: 1
EndChar

StartChar: uF1909
Encoding: 989449 989449 9
Width: 1000
Flags: W
LayerCount: 2
Fore
SplineSet
529 850 m 1
 979 400 l 1
 529 -50 l 1
 458 22 l 1
 836 400 l 1
 458 778 l 1
 529 850 l 1
122 850 m 1
 572 400 l 1
 122 -50 l 1
 50 22 l 1
 428 400 l 1
 50 778 l 1
 122 850 l 1
EndSplineSet
Validated: 1
EndChar

StartChar: uF190A
Encoding: 989450 989450 10
Width: 1000
Flags: W
HStem: 352 96<76 447 553 924>
VStem: 447 106<-24 352 448 824>
LayerCount: 2
Fore
SplineSet
447 824 m 1
 553 824 l 1
 553 448 l 1
 924 448 l 1
 924 352 l 1
 553 352 l 1
 553 -24 l 1
 447 -24 l 1
 447 352 l 1
 76 352 l 1
 76 448 l 1
 447 448 l 1
 447 824 l 1
EndSplineSet
Validated: 1
EndChar

StartChar: uF190B
Encoding: 989451 989451 11
Width: 1000
Flags: W
HStem: -45 94<193.446 299.491> 269 96<214.884 401.453> 429 96<592.509 784.302> 748 95<697.599 809.435>
VStem: 50 106<86.3362 214.728> 844 106<580.068 713.115>
LayerCount: 2
Fore
SplineSet
403 260 m 1
 361 267 334 269 311 269 c 0
 186 269 156 198 156 147 c 0
 156 133 158 121 162 112 c 0
 171 84 205 49 247 49 c 0
 291 49 344 87 388 211 c 0
 393 227 398 243 403 260 c 1
702 525 m 0
 799 525 844 588 844 648 c 0
 844 681 830 714 801 733 c 0
 787 742 770 748 751 748 c 0
 730 748 707 740 687 718 c 0
 669 699 631 658 591 543 c 1
 623 535 667 525 702 525 c 0
428 352 m 1
 441 404 451 444 461 480 c 1
 375 507 202 570 64 697 c 1
 132 771 l 1
 205 703 318 628 490 572 c 1
 539 708 621 843 752 843 c 0
 856 843 950 762 950 649 c 0
 950 629 947 608 940 586 c 0
 928 546 878 429 706 429 c 0
 704 429 703 429 701 429 c 0
 660 430 617 438 563 451 c 1
 557 431 552 410 547 389 c 2
 542 373 l 2
 539 358 535 342 531 326 c 1
 617 299 824 214 926 16 c 1
 836 -30 l 1
 808 26 720 162 504 234 c 1
 477 146 411 -45 247 -45 c 0
 143 -45 50 35 50 147 c 0
 50 168 53 189 60 211 c 0
 80 276 138 365 306 365 c 0
 346 365 384 360 428 352 c 1
EndSplineSet
Validated: 1
EndChar

StartChar: uF190C
Encoding: 989452 989452 12
Width: 1000
Flags: W
HStem: -50 95<375.465 622.89> 755 95<371.494 626.895>
VStem: 50 106<269.397 533.344> 844 106<268.808 533.921>
LayerCount: 2
Fore
SplineSet
50 401 m 0
 50 651 212 850 499 850 c 0
 786 850 950 653 950 401 c 0
 950 137 774 -50 499 -50 c 0
 225 -50 50 138 50 401 c 0
844 401 m 0
 844 599 719 755 499 755 c 0
 280 755 156 598 156 401 c 0
 156 194 289 45 499 45 c 0
 709 45 844 192 844 401 c 0
EndSplineSet
Validated: 1
EndChar

StartChar: uF190D
Encoding: 989453 989453 13
Width: 1000
Flags: W
HStem: 494 95<395.942 605.497>
LayerCount: 2
Fore
SplineSet
195 211 m 1
 92 234 l 1
 109 295 l 1
 174 468 325 589 501 589 c 0
 676 589 827 468 892 295 c 1
 908 238 l 1
 805 215 l 1
 794 258 l 1
 746 397 633 494 501 494 c 0
 368 494 255 397 207 258 c 1
 195 211 l 1
EndSplineSet
Validated: 1
EndChar

StartChar: uF190E
Encoding: 989454 989454 14
Width: 1000
Flags: W
HStem: 336 96<182 447 553 818> 729 95<182 447 553 818>
VStem: 76 106<432 729> 447 106<-50 336 432 729> 818 106<432 729>
CounterMasks: 1 38
LayerCount: 2
Fore
SplineSet
76 824 m 1
 924 824 l 1
 924 336 l 1
 553 336 l 1
 553 -50 l 1
 447 -50 l 1
 447 336 l 1
 76 336 l 1
 76 824 l 1
182 729 m 1
 182 432 l 1
 447 432 l 1
 447 729 l 1
 182 729 l 1
553 729 m 1
 553 432 l 1
 818 432 l 1
 818 729 l 1
 553 729 l 1
EndSplineSet
Validated: 1
EndChar

StartChar: uF190F
Encoding: 989455 989455 15
Width: 1000
Flags: W
HStem: 208 95<182 818> 411 147<448.125 551.875>
VStem: 76 106<303 607> 427 146<432.625 536.5> 818 106<303 607>
CounterMasks: 1 38
LayerCount: 2
Fore
SplineSet
76 607 m 1
 182 607 l 1
 182 303 l 1
 818 303 l 1
 818 607 l 1
 924 607 l 1
 924 208 l 1
 76 208 l 1
 76 607 l 1
427 485 m 0
 427 525 459 558 500 558 c 0
 541 558 573 525 573 485 c 0
 573 444 541 411 500 411 c 0
 459 411 427 444 427 485 c 0
EndSplineSet
Validated: 1
EndChar

StartChar: uF1910
Encoding: 989456 989456 16
Width: 1000
Flags: W
HStem: -19 96<327.374 559.425> 151 95<400.147 509.424> 600 95<632.054 739.362> 720 97<295.092 480.295>
VStem: 89 95<215.966 419.266> 162 96<605.048 687.378> 618 93<123.372 186.616> 625 96<314.148 467.43> 817 95<192.522 482.774>
LayerCount: 2
Fore
SplineSet
455 151 m 0xfa80
 375 151 275 203 204 421 c 1
 191 392 184 359 184 322 c 0
 184 165 299 77 439 77 c 0
 568 77 618 132 618 158 c 0
 618 166 603 181 597 187 c 1
 558 165 511 151 455 151 c 0xfa80
545 538 m 1
 538 531 484 478 478 425 c 1
 480 389 525 358 598 307 c 1
 617 332 625 362 625 389 c 0xf180
 625 430 598 504 545 538 c 1
382 427 m 0
 382 446 388 489 432 552 c 1
 367 546 318 529 281 506 c 1
 292 459 348 246 455 246 c 0
 476 246 494 249 510 253 c 1
 462 286 382 342 382 427 c 0
441 -19 m 0
 241 -19 89 120 89 320 c 0xfa80
 89 404 116 483 174 542 c 1
 166 583 162 620 162 649 c 0
 162 813 387 817 411 817 c 0
 435 817 473 815 511 800 c 1
 475 711 l 1
 462 717 436 720 408 720 c 0
 353 720 258 702 258 657 c 0
 258 645 259 627 262 604 c 1
 324 635 401 651 492 651 c 0
 504 651 517 649 529 647 c 1
 572 675 624 695 683 695 c 0
 846 695 912 493 912 360 c 0
 912 322 906 205 850 18 c 1
 758 45 l 1
 788 143 817 279 817 360 c 0
 817 433 782 600 683 600 c 0
 665 600 647 597 631 591 c 1
 644 579 721 501 721 389 c 0xf580
 721 341 703 290 670 249 c 1
 680 239 711 205 711 153 c 0xf280
 711 64 608 -19 441 -19 c 0
EndSplineSet
Validated: 1
EndChar

StartChar: uF1911
Encoding: 989457 989457 17
Width: 1000
Flags: W
HStem: 92 95<386.838 613.923> 755 95<387.791 612.809>
VStem: 122 106<350.727 587.002> 774 106<350.356 587.402>
LayerCount: 2
Fore
SplineSet
122 472 m 0
 122 683 259 850 500 850 c 0
 742 850 880 684 880 472 c 0
 880 399 863 287 778 199 c 1
 762 186 l 1
 898 13 l 1
 818 -50 l 1
 677 130 l 1
 658 120 l 1
 611 101 558 92 500 92 c 0
 442 92 390 101 343 120 c 1
 325 130 l 1
 184 -50 l 1
 104 13 l 1
 240 186 l 1
 224 199 l 1
 180 245 122 331 122 472 c 0
774 472 m 0
 774 630 675 755 500 755 c 0
 326 755 228 629 228 472 c 0
 228 306 334 187 500 187 c 0
 667 187 774 305 774 472 c 0
EndSplineSet
Validated: 1
EndChar

StartChar: uF1912
Encoding: 989458 989458 18
Width: 1000
Flags: W
HStem: -24 91<325 677> 472 95<127 285 717 875> 649 199<450.647 553.859>
VStem: 127 249<473.618 564.257> 448 106<734 848> 626 249<473.618 564.657>
CounterMasks: 1 1c
LayerCount: 2
Fore
SplineSet
448 848 m 1
 554 848 l 1
 554 734 l 1
 592 723 l 1
 617 713 676 686 705 608 c 1
 717 567 l 1
 875 567 l 1
 875 472 l 1
 717 472 l 1
 705 431 l 1
 693 400 671 363 630 335 c 1
 617 329 l 1
 856 -24 l 1
 145 -24 l 1
 384 329 l 1
 372 335 l 1
 349 351 316 379 296 431 c 1
 285 472 l 1
 127 472 l 1
 127 567 l 1
 285 567 l 1
 296 608 l 1
 313 651 345 698 409 723 c 1
 448 734 l 1
 448 848 l 1
626 520 m 0
 626 592 580 649 501 649 c 0
 421 649 376 591 376 520 c 0
 376 444 424 390 501 390 c 0
 577 390 626 444 626 520 c 0
514 300 m 1
 500 299 l 1
 488 300 l 1
 325 67 l 1
 677 67 l 1
 514 300 l 1
EndSplineSet
Validated: 1
EndChar

StartChar: uF1913
Encoding: 989459 989459 19
Width: 1000
Flags: W
HStem: 222 95<431 708> 446 95<458.768 580.764> 755 95<458.618 581.562>
VStem: 179 106<184.604 404.395> 318 106<580.077 718.969> 617 105<578.361 718.211>
LayerCount: 2
Fore
SplineSet
318 648 m 0
 318 761 391 850 520 850 c 0
 649 850 722 761 722 648 c 0
 722 529 643 446 520 446 c 0
 496 446 448 448 402 479 c 1
 380 497 l 1
 348 470 l 1
 327 447 285 391 285 293 c 0
 285 262 292 83 468 50 c 1
 520 45 l 1
 563 50 l 1
 608 60 672 95 702 193 c 1
 708 222 l 1
 431 222 l 1
 431 317 l 1
 819 317 l 1
 821 293 l 1
 819 269 818 245 816 221 c 1
 808 167 767 -6 586 -44 c 1
 520 -50 520 -50 520 -50 c 0
 311 -50 179 93 179 293 c 0
 179 473 286 561 328 583 c 1
 322 606 l 1
 320 619 318 634 318 648 c 0
617 648 m 0
 617 708 582 755 520 755 c 0
 458 755 424 707 424 648 c 0
 424 586 461 541 520 541 c 0
 579 541 617 585 617 648 c 0
EndSplineSet
Validated: 1
EndChar

StartChar: uF1914
Encoding: 989460 989460 20
Width: 1000
Flags: W
HStem: 141 95<521.154 687> 562 96<520.875 687>
VStem: 846 104<327.591 470.027>
LayerCount: 2
Fore
SplineSet
50 198 m 1
 90 273 134 341 182 399 c 1
 181 401 99 501 50 600 c 1
 135 650 l 1
 181 567 l 1
 196 541 213 516 230 493 c 1
 247 472 l 1
 320 536 l 1
 420 614 530 658 646 658 c 0
 818 658 950 539 950 399 c 0
 950 256 817 141 640 141 c 0
 542 141 430 176 320 262 c 1
 247 327 l 1
 230 305 l 1
 213 282 196 258 181 232 c 1
 135 149 l 1
 50 198 l 1
337 427 m 1
 310 399 l 1
 337 371 l 1
 419 296 523 236 647 236 c 1
 687 239 l 1
 778 255 846 320 846 399 c 0
 846 478 778 544 687 559 c 1
 647 562 l 1
 590 562 471 551 337 427 c 1
EndSplineSet
Validated: 1
EndChar

StartChar: uF1915
Encoding: 989461 989461 21
Width: 1000
Flags: W
HStem: 9 95<417.29 582.71> 310 92<260 740>
VStem: 446 106<509 772>
LayerCount: 2
Fore
SplineSet
132 402 m 1
 868 402 l 1
 861 367 l 1
 802 157 662 9 500 9 c 0
 338 9 198 157 139 367 c 1
 132 402 l 1
260 310 m 1
 276 274 l 1
 331 170 411 104 500 104 c 0
 589 104 669 170 724 274 c 1
 740 310 l 1
 260 310 l 1
128 710 m 1
 216 761 l 1
 347 533 l 1
 259 483 l 1
 128 710 l 1
783 761 m 1
 871 710 l 1
 740 483 l 1
 652 533 l 1
 783 761 l 1
446 509 m 1
 446 772 l 1
 552 772 l 1
 552 509 l 1
 446 509 l 1
EndSplineSet
Validated: 1
EndChar

StartChar: uF1916
Encoding: 989462 989462 22
Width: 1000
Flags: W
HStem: -24 95<78 288 565 798>
LayerCount: 2
Fore
SplineSet
476 850 m 1
 574 850 l 1
 950 -24 l 1
 565 -24 l 1
 565 71 l 1
 798 71 l 1
 536 703 l 1
 369 -24 l 1
 78 -24 l 1
 78 71 l 1
 288 71 l 1
 476 850 l 1
EndSplineSet
Validated: 1
EndChar

StartChar: uF1919
Encoding: 989465 989465 23
Width: 1000
Flags: W
HStem: 499 96<310 511 617 818> 728 96<310 511 617 818>
VStem: 204 106<595 728> 511 106<412 499 595 728> 749 106<-14 223.339> 818 106<595 728>
LayerCount: 2
Fore
SplineSet
617 728 m 1xf4
 617 595 l 1
 818 595 l 1
 818 728 l 1
 617 728 l 1xf4
310 728 m 1
 310 595 l 1
 511 595 l 1
 511 728 l 1
 310 728 l 1
564 321 m 0
 445 321 378 234 378 125 c 0
 379 -14 l 1
 259 -14 l 1
 53 247 l 1
 133 310 l 1
 206 217 l 1
 284 79 l 1
 274 147 l 1
 278 186 l 1
 286 232 325 380 500 411 c 1
 511 412 l 1
 511 499 l 1
 204 499 l 1
 204 824 l 1
 924 824 l 1
 924 499 l 1xf4
 617 499 l 1
 617 412 l 1
 627 411 l 1
 767 386 855 275 855 126 c 2
 855 -14 l 1
 749 -14 l 1
 749 125 l 0xf8
 749 235 682 321 564 321 c 0
EndSplineSet
Validated: 1
EndChar

StartChar: uF191A
Encoding: 989466 989466 24
Width: 1000
Flags: W
HStem: -50 95<362.034 636.216> 625 95<215.153 361.461 638.117 785.164>
VStem: 50 106<285.211 558.51> 448 106<649 850> 844 106<286.865 558.909>
LayerCount: 2
Fore
SplineSet
727 720 m 0
 842 716 950 632 950 443 c 0
 950 394 946 370 934 300 c 1
 911 175 838 48 710 -8 c 0
 643 -37 573 -50 502 -50 c 0
 450 -50 399 -43 349 -30 c 0
 222 3 124 104 86 225 c 0
 64 291 50 363 50 435 c 0
 50 468 53 502 60 535 c 0
 78 637 166 719 273 719 c 0
 275 719 276 719 278 719 c 0
 290 719 341 717 406 678 c 1
 448 648 l 1
 448 850 l 1
 554 850 l 1
 554 649 l 1
 572 663 l 1
 597 680 660 720 719 720 c 0
 727 720 l 0
716 625 m 0
 679 625 587 593 541 532 c 1
 499 488 l 1
 458 532 l 1
 425 566 l 1
 377 605 313 625 276 625 c 0
 275 625 274 625 274 625 c 0
 230 625 176 588 163 522 c 0
 159 501 157 479 156 457 c 1
 156 453 l 2
 156 450 156 442 156 436 c 0
 156 420 157 403 158 387 c 0
 162 365 165 343 169 322 c 0
 171 310 176 289 186 254 c 0
 192 236 238 98 376 62 c 0
 417 51 459 45 502 45 c 0
 559 45 616 56 668 79 c 0
 755 118 812 216 830 319 c 0
 839 381 844 413 844 435 c 0
 844 439 844 443 843 446 c 1
 844 449 l 1
 843 491 837 530 821 564 c 0
 803 602 759 625 716 625 c 0
EndSplineSet
Validated: 1
EndChar

StartChar: uF191B
Encoding: 989467 989467 25
Width: 1000
Flags: W
HStem: 675 95<325 675>
LayerCount: 2
Fore
SplineSet
272 770 m 1
 728 770 l 1
 976 473 l 1
 500 -17 l 1
 24 473 l 1
 272 770 l 1
325 675 m 1
 161 478 l 1
 500 129 l 1
 839 478 l 1
 675 675 l 1
 325 675 l 1
EndSplineSet
Validated: 1
EndChar

StartChar: uF191C
Encoding: 989468 989468 26
Width: 1000
Flags: W
HStem: -43 93<370.486 473.656> 51 94<668.98 824.633> 71 95<619.328 779.782> 748 95<379.081 638.582>
VStem: 50 105<302.641 408.196> 228 104<604.359 711.276> 755 106<549.967 672.535> 845 105<163.46 283.264>
LayerCount: 2
Fore
SplineSet
673 71 m 0xbd
 610 71 544 -43 411 -43 c 0
 387 -43 363 -39 340 -29 c 0
 282 -4 264 60 240 112 c 1
 180 191 50 221 50 348 c 0
 50 415 89 482 146 517 c 1
 175 543 226 558 234 600 c 1
 231 620 228 642 228 664 c 0
 228 693 233 721 254 744 c 1
 315 834 454 843 508 843 c 0
 687 843 861 761 861 623 c 0xbe
 861 575 834 529 826 482 c 1
 845 384 950 335 950 221 c 0
 950 118 870 51 783 51 c 0xdd
 728 51 696 71 673 71 c 0xbd
721 486 m 0
 721 551 755 577 755 625 c 0
 755 642 749 659 733 673 c 0
 673 728 587 745 508 748 c 0
 447 747 374 742 332 691 c 1
 333 661 339 632 339 603 c 0
 339 528 299 501 215 443 c 1
 182 424 155 388 155 350 c 0
 155 340 157 329 162 319 c 1
 211 250 306 224 340 142 c 0
 356 108 364 50 408 50 c 0
 494 50 560 166 662 166 c 0xbe
 702 166 741 150 781 145 c 1
 822 146 845 183 845 220 c 0xdd
 845 300 721 373 721 486 c 0
EndSplineSet
Validated: 1
EndChar

StartChar: uF191D
Encoding: 989469 989469 27
Width: 1000
Flags: W
VStem: 220 105<481.474 636.291> 365 106<159.995 315.247> 531 106<482.862 638.011> 676 106<161.636 317.133>
LayerCount: 2
Fore
SplineSet
637 562 m 0
 637 432 782 404 782 246 c 0
 782 155 742 42 568 -17 c 1
 536 75 l 1
 602 99 676 142 676 247 c 0
 676 362 531 395 531 563 c 0
 531 672 613 785 749 816 c 1
 771 720 l 1
 709 705 637 648 637 562 c 0
365 236 m 0
 365 366 220 395 220 552 c 0
 220 643 259 757 434 816 c 1
 466 723 l 1
 397 698 325 655 325 552 c 0
 325 437 471 403 471 235 c 0
 471 126 389 13 253 -17 c 1
 231 78 l 1
 292 93 365 150 365 236 c 0
EndSplineSet
Validated: 1
EndChar

StartChar: uF191E
Encoding: 989470 989470 28
Width: 1000
Flags: W
HStem: 5 96<196 802> 312 95<49 201 364 635 797 950>
LayerCount: 2
Fore
SplineSet
499 829 m 1
 742 407 l 1
 950 407 l 1
 950 312 l 1
 797 312 l 1
 974 5 l 1
 24 5 l 1
 201 312 l 1
 49 312 l 1
 49 407 l 1
 256 407 l 1
 499 829 l 1
499 638 m 1
 364 403 l 1
 635 403 l 1
 499 638 l 1
318 312 m 1
 196 101 l 1
 802 101 l 1
 680 312 l 1
 318 312 l 1
EndSplineSet
Validated: 1
EndChar

StartChar: uF191F
Encoding: 989471 989471 29
Width: 1000
Flags: W
HStem: -22 91<191.172 313.009 688.172 810.263> 291 91<189.467 314.714 686.467 811.753> 416 92<439.277 561.764> 731 91<437.786 563.469>
VStem: 50 102<107.913 251.477> 298 102<547.179 691.477> 353 101<107.712 251.678> 547 102<107.913 251.477> 602 102<546.979 691.477> 850 102<107.712 251.678>
LayerCount: 2
Fore
SplineSet
547 180 m 0xf940
 547 293 620 382 749 382 c 0
 878 382 952 294 952 180 c 0
 952 61 872 -22 749 -22 c 0
 626 -22 547 62 547 180 c 0xf940
850 180 m 0
 850 242 813 291 749 291 c 0
 685 291 649 242 649 180 c 0
 649 115 688 69 749 69 c 0
 811 69 850 115 850 180 c 0
50 180 m 0
 50 293 123 382 252 382 c 0
 381 382 454 294 454 180 c 0xfa40
 454 61 375 -22 252 -22 c 0
 129 -22 50 62 50 180 c 0
353 180 m 0
 353 242 316 291 252 291 c 0
 188 291 152 242 152 180 c 0
 152 115 191 69 252 69 c 0
 313 69 353 115 353 180 c 0
298 620 m 0xfcc0
 298 733 371 822 500 822 c 0
 630 822 704 733 704 620 c 0
 704 500 624 416 500 416 c 0
 377 416 298 501 298 620 c 0xfcc0
602 620 m 0
 602 682 565 731 501 731 c 0
 437 731 400 682 400 620 c 0
 400 554 439 508 501 508 c 0
 562 508 602 554 602 620 c 0
EndSplineSet
Validated: 1
EndChar

StartChar: uF1920
Encoding: 989472 989472 30
Width: 1000
Flags: W
HStem: 753 95<458.495 617.599>
VStem: 424 100<455.676 499.68> 655 106<478.715 716.068>
LayerCount: 2
Fore
SplineSet
424 522 m 1
 524 498 l 1
 504 413 470 346 419 279 c 1
 337 342 l 1
 381 400 406 449 424 522 c 1
655 619 m 0
 655 664 653 753 550 753 c 0
 477 753 418 712 369 671 c 0
 353 658 334 642 319 629 c 1
 256 708 l 1
 365 794 435 848 552 848 c 0
 610 848 761 828 761 617 c 0
 761 562 747 317 521 67 c 0
 471 11 425 -27 394 -50 c 1
 333 30 l 1
 512 167 655 416 655 619 c 0
EndSplineSet
Validated: 1
EndChar

StartChar: uF1921
Encoding: 989473 989473 31
Width: 1000
Flags: W
VStem: 577 106<276.524 524.262>
LayerCount: 2
Fore
SplineSet
409 865 m 1
 447 840 683 675 683 400 c 0
 683 221 581 58 417 -60 c 1
 409 -65 l 1
 352 15 l 1
 369 27 l 1
 498 126 577 256 577 400 c 0
 577 534 508 657 394 753 c 1
 352 785 l 1
 409 865 l 1
EndSplineSet
Validated: 1
EndChar

StartChar: uF1922
Encoding: 989474 989474 32
Width: 1000
Flags: W
HStem: 159 95<635.195 784.857> 352 96<50 474.744> 546 95<635.369 782.623>
VStem: 471 102<317.107 352 448 482.15> 844 106<318.083 484.807>
CounterMasks: 1 e0
LayerCount: 2
Fore
SplineSet
471 448 m 1
 475 492 523 641 708 641 c 0
 862 641 950 536 950 401 c 0
 950 259 855 159 708 159 c 0
 525 159 475 306 471 352 c 1
 50 352 l 1
 50 448 l 1
 471 448 l 1
844 400 m 0
 844 482 795 546 708 546 c 0
 622 546 573 482 573 400 c 0
 573 315 626 254 708 254 c 0
 791 254 844 314 844 400 c 0
EndSplineSet
Validated: 1
EndChar

StartChar: uF1924
Encoding: 989476 989476 33
Width: 1000
Flags: W
HStem: -50 95<312.454 487.635> 461 91<176 625 747 950> 755 95<310.399 491.845>
VStem: 50 106<250.965 458.789> 645 106<250.191 461>
LayerCount: 2
Fore
SplineSet
50 401 m 0
 50 652 177 850 400 850 c 0
 478 850 655 822 726 581 c 1
 732 556 l 1
 950 556 l 1
 950 461 l 1
 747 461 l 1
 751 401 l 1
 751 136 614 -50 400 -50 c 0
 186 -50 50 138 50 401 c 0
400 755 m 0
 347 755 251 735 194 604 c 1
 176 552 l 1
 625 552 l 1
 607 604 l 1
 582 661 523 755 400 755 c 0
400 45 m 0
 549 45 645 192 645 401 c 1
 642 461 l 1
 159 461 l 1
 156 401 l 1
 156 193 251 45 400 45 c 0
EndSplineSet
Validated: 1
EndChar

StartChar: uF1925
Encoding: 989477 989477 34
Width: 1000
Flags: W
HStem: 161 96<236 447 553 764> 729 95<236 764>
VStem: 130 106<-24 161 257 729> 447 106<-24 161> 764 105<-24 161 257 729>
LayerCount: 2
Fore
SplineSet
130 824 m 1
 870 824 l 1
 869 -24 l 1
 764 -24 l 1
 764 161 l 1
 553 161 l 1
 553 -24 l 1
 447 -24 l 1
 447 161 l 1
 236 161 l 1
 236 -24 l 1
 130 -24 l 1
 130 824 l 1
236 729 m 1
 236 257 l 1
 764 257 l 1
 764 729 l 1
 236 729 l 1
EndSplineSet
Validated: 1
EndChar

StartChar: uF1927
Encoding: 989479 989479 35
Width: 1000
Flags: W
LayerCount: 2
Fore
SplineSet
259 850 m 1
 798 400 l 1
 259 -50 l 1
 193 28 l 1
 640 400 l 1
 193 772 l 1
 259 850 l 1
EndSplineSet
Validated: 1
EndChar

StartChar: uF1928
Encoding: 989480 989480 36
Width: 1000
Flags: W
HStem: 248 279
LayerCount: 2
Fore
SplineSet
643 527 m 1
 710 460 l 1
 499 248 l 1
 288 460 l 1
 355 527 l 1
 499 383 l 1
 643 527 l 1
EndSplineSet
Validated: 1
EndChar

StartChar: uF1929
Encoding: 989481 989481 37
Width: 1000
Flags: W
HStem: 250 95<270.111 394.304> 455 95<606.819 732.51>
VStem: 79 100<467.199 507.75>
LayerCount: 2
Fore
SplineSet
818 274 m 1
 802 376 742 455 674 455 c 0
 617 455 585 420 537 365 c 0
 490 313 432 250 337 250 c 0
 334 250 331 250 328 250 c 0
 210 256 125 333 79 506 c 1
 179 531 l 1
 212 397 264 345 337 345 c 0
 384 345 410 374 461 432 c 0
 509 485 571 550 673 550 c 0
 787 550 893 447 920 291 c 1
 818 274 l 1
EndSplineSet
Validated: 1
EndChar

StartChar: uF192A
Encoding: 989482 989482 38
Width: 1000
Flags: W
HStem: -24 95<236 764> 729 95<236 764>
VStem: 130 106<71 729> 764 106<71 729>
LayerCount: 2
Fore
SplineSet
130 824 m 1
 870 824 l 1
 870 -24 l 1
 130 -24 l 1
 130 824 l 1
236 729 m 1
 236 71 l 1
 764 71 l 1
 764 729 l 1
 236 729 l 1
EndSplineSet
Validated: 1
EndChar

StartChar: uF192B
Encoding: 989483 989483 39
Width: 1000
Flags: W
HStem: -14 91<324 677> 447 94<419.019 582.368> 733 91<282 720>
LayerCount: 2
Fore
SplineSet
426 400 m 1
 576 400 l 1
 650 293 722 185 795 77 c 2
 857 -14 l 1
 145 -14 l 1
 231 114 318 242 405 370 c 1
 426 400 l 1
501 329 m 1
 324 77 l 1
 677 77 l 1
 501 329 l 1
151 824 m 1
 849 824 l 1
 840 779 l 1
 828 749 817 718 806 687 c 1
 739 542 627 447 500 447 c 0
 373 447 261 542 194 687 c 1
 183 718 172 749 160 779 c 1
 151 824 l 1
282 733 m 1
 312 672 l 1
 361 591 428 541 501 541 c 0
 575 541 642 591 691 672 c 1
 720 733 l 1
 282 733 l 1
EndSplineSet
Validated: 1
EndChar

StartChar: uF192C
Encoding: 989484 989484 40
Width: 1000
Flags: W
HStem: 245 95<145 855> 442 147<448.125 551.875>
VStem: 427 146<463.625 567.5>
LayerCount: 2
Fore
SplineSet
427 516 m 0
 427 556 459 589 500 589 c 0
 541 589 573 556 573 516 c 0
 573 475 541 442 500 442 c 0
 459 442 427 475 427 516 c 0
145 245 m 1
 145 340 l 1
 855 340 l 1
 855 245 l 1
 145 245 l 1
EndSplineSet
Validated: 1
EndChar

StartChar: uF192D
Encoding: 989485 989485 41
Width: 1000
Flags: W
HStem: 683 95<498.245 697.573>
VStem: 269 106<148.75 557.218> 818 106<22 559.441>
LayerCount: 2
Fore
SplineSet
596 778 m 0
 669 778 834 758 901 583 c 0
 909 563 914 542 918 520 c 1
 924 453 l 1
 924 22 l 1
 818 22 l 1
 818 453 l 1
 814 500 l 1
 797 603 722 683 596 683 c 0
 562 683 408 673 379 500 c 1
 375 453 l 1
 375 22 l 1
 256 22 l 1
 50 283 l 1
 130 346 l 1
 202 254 l 1
 281 115 l 1
 269 196 l 1
 269 453 l 1
 275 520 l 1
 283 568 335 778 596 778 c 0
EndSplineSet
Validated: 1
EndChar

StartChar: uF192E
Encoding: 989486 989486 42
Width: 1000
Flags: W
HStem: 131 95<324.223 675.851> 327 146<448.125 551.875> 574 95<320.342 678.457>
VStem: 50 106<334.199 463.227> 427 146<348.125 451.875> 844 106<335.178 463.589>
CounterMasks: 1 fc
LayerCount: 2
Fore
SplineSet
50 401 m 0
 50 550 212 669 499 669 c 0
 787 669 950 551 950 401 c 0
 950 243 774 131 499 131 c 0
 409 131 175 146 82 292 c 0
 61 325 50 361 50 401 c 0
844 401 m 0
 844 498 719 574 499 574 c 0
 280 574 156 497 156 401 c 0
 156 299 289 226 499 226 c 0
 570 226 748 236 820 330 c 0
 836 352 844 375 844 401 c 0
573 400 m 0
 573 359 541 327 500 327 c 0
 459 327 427 359 427 400 c 0
 427 441 459 473 500 473 c 0
 541 473 573 441 573 400 c 0
EndSplineSet
Validated: 1
EndChar

StartChar: uF192F
Encoding: 989487 989487 43
Width: 1000
Flags: W
HStem: -50 95<402.453 600.344>
VStem: 136 100<242.302 826> 764 106<239.572 826>
LayerCount: 2
Fore
SplineSet
500 45 m 0
 646 45 739 160 760 316 c 1
 764 388 l 2
 764 826 l 1
 870 826 l 1
 870 387 l 1
 864 297 l 1
 851 210 807 56 653 -17 c 0
 607 -39 556 -50 499 -50 c 0
 425 -50 233 -26 156 213 c 0
 147 239 141 267 136 297 c 1
 130 389 130 389 130 826 c 1
 236 826 l 1
 236 388 l 2
 236 188 338 45 500 45 c 0
EndSplineSet
Validated: 1
EndChar

StartChar: uF1930
Encoding: 989488 989488 44
Width: 1000
Flags: W
HStem: -50 99<424 452 548 575> 354 92<160 452 548 840> 751 99<424 452 548 575>
VStem: 50 110<326 354 446 475> 452 96<50 354 446 751> 840 110<326 354 446 475>
CounterMasks: 1 fc
LayerCount: 2
Fore
SplineSet
50 401 m 0
 50 651 212 850 499 850 c 0
 786 850 950 653 950 401 c 0
 950 137 774 -50 499 -50 c 0
 225 -50 50 138 50 401 c 0
452 751 m 1
 424 748 l 1
 284 722 187 619 162 475 c 1
 160 446 l 1
 452 446 l 1
 452 751 l 1
548 751 m 1
 548 446 l 1
 840 446 l 1
 838 475 l 1
 828 534 781 711 575 748 c 1
 548 751 l 1
160 354 m 1
 162 326 l 1
 171 273 217 91 424 52 c 1
 452 49 l 1
 452 354 l 1
 160 354 l 1
548 354 m 1
 548 50 l 1
 575 52 l 1
 712 78 813 178 838 326 c 1
 840 354 l 1
 548 354 l 1
EndSplineSet
Validated: 1
EndChar

StartChar: uF1931
Encoding: 989489 989489 45
Width: 1000
Flags: W
HStem: -50 83<442.201 557.6> 208 96<442.475 557.238> 755 95<379.928 621.91>
VStem: 132 105<435.567 624.271> 323 92<60.5581 181.995> 585 92<60.3724 181.202> 763 105<434.615 624.671>
LayerCount: 2
Fore
SplineSet
132 530 m 0
 132 708 264 850 499 850 c 0
 734 850 868 709 868 530 c 0
 868 465 848 301 653 232 c 1
 630 227 l 1
 649 204 l 1
 663 184 677 154 677 112 c 0
 677 17 608 -50 500 -50 c 0
 392 -50 323 18 323 112 c 0
 323 126 324 166 351 204 c 1
 370 227 l 1
 347 232 l 1
 283 255 132 329 132 530 c 0
763 530 m 0
 763 656 667 755 500 755 c 0
 332 755 237 655 237 530 c 0
 237 398 339 304 500 304 c 0
 660 304 763 397 763 530 c 0
585 121 m 0
 585 170 553 208 500 208 c 0
 446 208 415 170 415 121 c 0
 415 69 448 33 500 33 c 0
 551 33 585 69 585 121 c 0
EndSplineSet
Validated: 1
EndChar

StartChar: uF1932
Encoding: 989490 989490 46
Width: 1000
Flags: W
HStem: -50 95<387.557 612.6> 613 95<388.343 616.658>
VStem: 50 106<748.572 850> 121 106<210.941 448.307> 774 107<210.355 448.653> 846 106<748.572 850>
LayerCount: 2
Fore
SplineSet
500 -50 m 0xc8
 268 -50 121 109 121 330 c 0xd8
 121 395 134 474 180 547 c 1
 193 563 l 1
 167 585 l 1
 94 655 50 748 50 850 c 1
 156 850 l 1
 156 773 190 702 246 649 c 1
 264 635 l 1
 278 647 l 1
 335 685 408 708 500 708 c 0
 574 708 653 693 724 647 c 1
 737 635 l 1
 756 649 l 1
 812 702 846 773 846 850 c 1
 952 850 l 1xe4
 952 748 907 655 834 585 c 1
 809 563 l 1
 822 547 l 1
 853 498 881 427 881 330 c 0
 881 107 732 -50 500 -50 c 0xc8
774 330 m 0
 774 489 675 613 500 613 c 0
 326 613 227 488 227 330 c 0
 227 164 333 45 500 45 c 0
 667 45 774 163 774 330 c 0
EndSplineSet
Validated: 1
EndChar

StartChar: uF1933
Encoding: 989491 989491 47
Width: 1000
Flags: W
HStem: 74 95<423.23 576.77> 499 95<421.104 578.896> 670 95<379.126 617.906>
VStem: 74 106<84 463.267> 244 106<245.581 424.099> 650 106<245.166 424.3> 818 106<84 463.639>
LayerCount: 2
Fore
SplineSet
74 334 m 0
 74 575 228 765 498 765 c 0
 769 765 924 576 924 334 c 2
 924 334 924 334 924 84 c 1
 818 84 l 1
 818 334 l 0
 818 522 702 670 499 670 c 0
 295 670 180 521 180 334 c 2
 180 84 l 1
 74 84 l 1
 74 334 l 0
244 335 m 0
 244 479 337 594 500 594 c 0
 663 594 756 480 756 335 c 0
 756 182 656 74 500 74 c 0
 344 74 244 183 244 335 c 0
650 334 m 0
 650 427 595 499 500 499 c 0
 405 499 350 427 350 334 c 0
 350 238 409 169 500 169 c 0
 591 169 650 237 650 334 c 0
EndSplineSet
Validated: 1
EndChar

StartChar: uF1934
Encoding: 989492 989492 48
Width: 1000
Flags: W
HStem: 383 94<458.602 601.377> 751 94<457.394 602.285>
VStem: 272 106<208.362 447.073> 657 105<533.166 693.227>
LayerCount: 2
Fore
SplineSet
365 -45 m 1
 320 70 272 238 272 423 c 0
 272 426 273 579 303 668 c 1
 314 706 l 1
 331 749 384 845 530 845 c 0
 567 845 728 835 758 662 c 1
 761 637 762 625 762 613 c 0
 762 601 761 589 759 565 c 1
 754 534 719 383 541 383 c 0
 431 383 380 448 379 449 c 1
 378 400 l 1
 379 344 386 190 461 -9 c 1
 365 -45 l 1
657 614 m 0
 657 691 610 751 530 751 c 0
 450 751 404 690 404 614 c 0
 404 534 453 477 530 477 c 0
 607 477 657 534 657 614 c 0
EndSplineSet
Validated: 1
EndChar

StartChar: uF1935
Encoding: 989493 989493 49
Width: 1000
Flags: W
HStem: -24 241<76 182 818 924> 121 96<182 270 392.875 607.125 730 818> 755 95<389.161 609.884>
VStem: 76 106<-24 121> 135 106<371.423 599.379> 759 106<371.167 599.968> 818 106<-24 121>
LayerCount: 2
Fore
SplineSet
759 486 m 0x6c
 759 637 664 755 500 755 c 0
 335 755 241 636 241 486 c 0
 241 329 342 217 500 217 c 0
 658 217 759 328 759 486 c 0x6c
135 487 m 0
 135 689 267 850 499 850 c 0
 732 850 865 691 865 487 c 0
 865 455 864 331 773 232 c 0
 772 232 730 213 730 213 c 1
 778 217 l 1x6c
 924 217 l 1
 924 -24 l 1
 818 -24 l 1xa2
 818 121 l 1
 182 121 l 1x72
 182 -24 l 1
 76 -24 l 1
 76 217 l 1xb2
 221 217 l 1
 270 213 l 1
 227 232 l 1
 185 278 135 359 135 487 c 0
EndSplineSet
Validated: 1
EndChar

StartChar: uF1936
Encoding: 989494 989494 50
Width: 1000
Flags: W
HStem: 321 95<474.598 653.721> 447 94<482.406 646.333> 733 91<346 784>
VStem: 750 105<-14 219.202>
LayerCount: 2
Fore
SplineSet
564 321 m 0
 446 321 379 235 379 125 c 0
 379 118 l 1
 379 -14 l 1
 259 -14 l 1
 53 247 l 1
 133 310 l 1
 206 218 l 1
 284 79 l 1
 274 147 l 1
 278 186 l 1
 285 229 331 416 564 416 c 0
 749 416 855 289 855 126 c 0
 855 118 l 1
 855 -14 l 1
 750 -14 l 1
 750 118 l 1
 749 125 l 0
 749 235 682 321 564 321 c 0
215 824 m 1
 912 824 l 1
 903 779 l 1
 892 749 880 718 869 687 c 1
 803 542 691 447 564 447 c 0
 436 447 324 542 258 687 c 1
 247 718 235 749 224 779 c 1
 215 824 l 1
346 733 m 1
 376 672 l 1
 424 591 491 541 565 541 c 0
 639 541 706 591 754 672 c 1
 784 733 l 1
 346 733 l 1
EndSplineSet
Validated: 1
EndChar

StartChar: uF1937
Encoding: 989495 989495 51
Width: 1000
Flags: W
HStem: -50 95<375.465 622.89> 755 95<371.494 626.895>
VStem: 50 106<269.397 533.344> 844 106<268.808 533.921>
LayerCount: 2
Fore
SplineSet
570 539 m 1
 650 459 l 1
 729 539 l 1
 789 479 l 1
 709 400 l 1
 789 320 l 1
 729 261 l 1
 650 340 l 1
 570 261 l 1
 511 320 l 1
 590 400 l 1
 511 479 l 1
 570 539 l 1
271 539 m 1
 351 459 l 1
 430 539 l 1
 490 479 l 1
 410 400 l 1
 490 320 l 1
 430 261 l 1
 351 340 l 1
 271 261 l 1
 212 320 l 1
 291 400 l 1
 212 479 l 1
 271 539 l 1
50 401 m 0
 50 651 212 850 499 850 c 0
 786 850 950 653 950 401 c 0
 950 137 774 -50 499 -50 c 0
 225 -50 50 138 50 401 c 0
844 401 m 0
 844 599 719 755 499 755 c 0
 280 755 156 598 156 401 c 0
 156 194 289 45 499 45 c 0
 709 45 844 192 844 401 c 0
EndSplineSet
Validated: 1
EndChar

StartChar: uF1938
Encoding: 989496 989496 52
Width: 1000
Flags: W
HStem: -24 95<490 785> 327 146<161.5 264.875> 729 95<490 785>
VStem: 140 146<348.125 451.875> 384 106<71 729>
CounterMasks: 1 e0
LayerCount: 2
Fore
SplineSet
785 824 m 1
 785 729 l 1
 490 729 l 1
 490 71 l 1
 785 71 l 1
 785 -24 l 1
 384 -24 l 1
 384 824 l 1
 785 824 l 1
286 400 m 0
 286 359 254 327 213 327 c 0
 173 327 140 359 140 400 c 0
 140 441 173 473 213 473 c 0
 254 473 286 441 286 400 c 0
EndSplineSet
Validated: 1
EndChar

StartChar: uF193B
Encoding: 989499 989499 53
Width: 1000
Flags: W
HStem: -50 95<403.273 596.781> 755 95<181.628 299.203 700.247 817.999>
VStem: 50 102<595.28 725.56> 189 109<152.344 475> 330 101<594.405 722.913> 569 101<595.28 722.719> 705 106<157.632 475> 848 102<594.405 723.744>
LayerCount: 2
Fore
SplineSet
50 660 m 0
 50 766 119 850 240 850 c 0
 362 850 431 767 431 660 c 0
 431 621 421 524 320 483 c 1
 295 476 l 1
 295 262 295 262 298 216 c 0
 300 188 335 45 500 45 c 0
 613 45 685 118 702 216 c 1
 705 261 l 1
 705 476 l 1
 680 483 l 2
 648 496 569 541 569 660 c 0
 569 766 637 850 759 850 c 0
 881 850 950 767 950 660 c 0
 950 621 939 524 838 483 c 1
 811 475 l 1
 811 262 811 262 806 197 c 1
 781 53 670 -50 500 -50 c 0
 326 -50 219 57 194 197 c 1
 189 261 l 1
 189 475 l 1
 161 483 l 2
 129 496 50 541 50 660 c 0
330 660 m 0
 330 713 297 755 240 755 c 0
 184 755 152 712 152 660 c 0
 152 604 186 564 240 564 c 0
 295 564 330 604 330 660 c 0
848 660 m 0
 848 713 816 755 759 755 c 0
 703 755 670 713 670 660 c 0
 670 604 705 564 759 564 c 0
 814 564 848 604 848 660 c 0
EndSplineSet
Validated: 1
EndChar

StartChar: uF193C
Encoding: 989500 989500 54
Width: 1000
Flags: W
VStem: 185 106<99 701> 447 106<99 701> 709 106<99 701>
CounterMasks: 1 e0
LayerCount: 2
Fore
SplineSet
447 99 m 1
 447 701 l 1
 553 701 l 1
 553 99 l 1
 447 99 l 1
185 99 m 1
 185 701 l 1
 291 701 l 1
 291 99 l 1
 185 99 l 1
709 99 m 1
 709 701 l 1
 815 701 l 1
 815 99 l 1
 709 99 l 1
EndSplineSet
Validated: 1
EndChar

StartChar: uF193D
Encoding: 989501 989501 55
Width: 1000
Flags: W
HStem: 180 96<76 277 383 619 725 924> 524 95<76 277 383 619 725 924>
VStem: 277 106<-24 180 276 524 619 823> 619 106<-17 180 276 524 619 830>
LayerCount: 2
Fore
SplineSet
619 830 m 1
 725 830 l 1
 725 619 l 1
 924 619 l 1
 924 524 l 1
 725 524 l 1
 725 276 l 1
 924 276 l 1
 924 180 l 1
 725 180 l 1
 725 -17 l 1
 619 -17 l 1
 619 180 l 1
 383 180 l 1
 383 -24 l 1
 277 -24 l 1
 277 180 l 1
 76 180 l 1
 76 276 l 1
 277 276 l 1
 277 524 l 1
 76 524 l 1
 76 619 l 1
 277 619 l 1
 277 823 l 1
 383 823 l 1
 383 619 l 1
 619 619 l 1
 619 830 l 1
383 524 m 1
 383 276 l 1
 619 276 l 1
 619 524 l 1
 383 524 l 1
EndSplineSet
Validated: 1
EndChar

StartChar: uF193E
Encoding: 989502 989502 56
Width: 1000
Flags: W
HStem: -50 96<418.567 668.687> 194 97<522.153 618> 497 96<504.39 696.142> 754 96<462.002 768.575>
VStem: 92 106<270.623 512.47> 349 106<343.472 451.81> 800 105<168.986 389.847>
LayerCount: 2
Fore
SplineSet
596 497 m 0
 581 497 456 494 455 396 c 0
 455 318 566 291 618 291 c 1
 620 195 l 1
 616 194 613 194 609 194 c 0
 486 194 349 262 349 395 c 0
 349 508 444 593 594 593 c 0
 790 593 905 466 905 285 c 0
 905 56 752 -50 555 -50 c 0
 197 -50 92 227 92 395 c 0
 92 652 297 850 611 850 c 0
 637 850 751 850 875 800 c 1
 838 708 l 1
 805 722 722 754 612 754 c 0
 346 754 198 583 198 395 c 0
 198 345 208 294 229 245 c 0
 279 129 377 48 551 46 c 0
 552 46 553 46 555 46 c 0
 659 46 800 84 800 285 c 0
 800 436 707 497 596 497 c 0
EndSplineSet
Validated: 1
EndChar

StartChar: uF193F
Encoding: 989503 989503 57
Width: 1000
Flags: W
VStem: 450 105<-51 430 561 849>
LayerCount: 2
Fore
SplineSet
450 849 m 1
 555 849 l 1
 555 559 l 1
 795 308 l 1
 722 239 l 1
 555 430 l 1
 555 -51 l 1
 450 -51 l 1
 450 431 l 1
 281 239 l 1
 208 308 l 1
 450 561 l 1
 450 849 l 1
EndSplineSet
Validated: 1
EndChar

StartChar: uF1940
Encoding: 989504 989504 58
Width: 1000
Flags: W
HStem: 755 95<387.2 611.844>
VStem: 130 106<-24 593.655> 764 106<-24 591.384>
LayerCount: 2
Fore
SplineSet
130 480 m 0
 130 686 264 850 499 850 c 0
 735 850 870 688 870 480 c 0
 870 -24 l 1
 764 -24 l 1
 764 480 l 0
 764 634 668 755 500 755 c 0
 331 755 236 633 236 480 c 0
 236 -24 l 1
 130 -24 l 1
 130 480 l 0
EndSplineSet
Validated: 1
EndChar

StartChar: uF1941
Encoding: 989505 989505 59
Width: 1000
Flags: W
VStem: 448 106<101 849>
LayerCount: 2
Fore
SplineSet
448 849 m 1
 554 849 l 1
 554 101 l 1
 720 297 l 1
 793 228 l 1
 500 -79 l 1
 207 228 l 1
 280 297 l 1
 448 101 l 1
 448 849 l 1
EndSplineSet
Validated: 1
EndChar

StartChar: uF1942
Encoding: 989506 989506 60
Width: 1000
Flags: W
HStem: 149 95<209.475 790.525> 554 95<209.475 790.525>
VStem: 76 106<273.168 525.232> 818 106<273.168 525.232>
LayerCount: 2
Fore
SplineSet
266 649 m 2
 734 649 l 2
 839 649 924 565 924 460 c 2
 924 338 l 2
 924 234 839 149 734 149 c 2
 266 149 l 2
 161 149 76 234 76 338 c 2
 76 460 l 2
 76 565 161 649 266 649 c 2
266 554 m 2
 219 554 182 517 182 470 c 2
 182 328 l 2
 182 282 219 244 266 244 c 2
 734 244 l 2
 781 244 818 282 818 328 c 2
 818 470 l 2
 818 517 781 554 734 554 c 2
 266 554 l 2
EndSplineSet
Validated: 1
EndChar

StartChar: uF1943
Encoding: 989507 989507 61
Width: 1000
Flags: W
HStem: 30 95<253 680.071> 364 96<561 683.368>
VStem: 147 106<125 770> 455 106<460 770> 760 106<188.541 300.72>
LayerCount: 2
Fore
SplineSet
866 245 m 0
 866 119 747 30 561 30 c 2
 147 30 l 1
 147 770 l 1
 253 770 l 1
 253 125 l 1
 561 125 l 2
 602 125 705 132 746 197 c 0
 755 212 760 228 760 245 c 0
 760 312 688 364 561 364 c 2
 455 364 l 1
 455 770 l 1
 561 770 l 1
 561 460 l 1
 755 460 866 365 866 245 c 0
EndSplineSet
Validated: 1
EndChar

StartChar: uF1944
Encoding: 989508 989508 62
Width: 1000
Flags: W
HStem: -50 95<437.935 560.065> 267 96<436.915 561.085>
VStem: 293 101<89.7792 222.489> 446 106<416 850> 604 101<89.7792 222.489>
CounterMasks: 1 38
LayerCount: 2
Fore
SplineSet
446 416 m 1
 446 850 l 1
 552 850 l 1
 552 416 l 1
 446 416 l 1
499 363 m 0
 613 363 705 270 705 156 c 0
 705 42 613 -50 499 -50 c 0
 385 -50 293 42 293 156 c 0
 293 270 385 363 499 363 c 0
499 267 m 0
 441 267 394 218 394 156 c 0
 394 95 441 45 499 45 c 0
 557 45 604 95 604 156 c 0
 604 218 557 267 499 267 c 0
EndSplineSet
Validated: 1
EndChar

StartChar: uF1946
Encoding: 989510 989510 63
Width: 1000
Flags: W
HStem: 164 95<640.593 787.128> 541 95<641.381 787.482>
VStem: 477 106<324.626 482.345> 844 106<318.693 479.623>
LayerCount: 2
Fore
SplineSet
844 400 m 0
 844 479 796 541 713 541 c 0
 630 541 583 478 583 400 c 0
 583 318 634 259 713 259 c 0
 793 259 844 317 844 400 c 0
713 636 m 0
 733 636 950 631 950 401 c 0
 949 361 934 164 714 164 c 0
 661 164 477 175 308 293 c 0
 214 359 133 448 52 565 c 1
 134 622 l 1
 256 445 371 341 527 291 c 1
 506 310 477 346 477 400 c 0
 477 535 565 636 713 636 c 0
EndSplineSet
Validated: 1
EndChar

StartChar: uF1947
Encoding: 989511 989511 64
Width: 1000
Flags: W
HStem: -24 95<236 764> 295 95<236 764>
VStem: 130 106<71 295 390 824> 764 106<71 295 390 824>
LayerCount: 2
Fore
SplineSet
131 824 m 1
 236 824 l 1
 236 390 l 1
 764 390 l 1
 764 824 l 1
 870 824 l 1
 870 -24 l 1
 130 -24 l 1
 131 824 l 1
236 295 m 1
 236 71 l 1
 764 71 l 1
 764 295 l 1
 236 295 l 1
EndSplineSet
Validated: 1
EndChar

StartChar: uF1948
Encoding: 989512 989512 65
Width: 1000
Flags: W
HStem: 4 95<210 436 548 790> 353 94<442 558> 701 95<210 452 564 790>
VStem: 104 106<99 701> 790 106<99 701>
CounterMasks: 1 e0
LayerCount: 2
Fore
SplineSet
104 796 m 1
 896 796 l 1
 896 4 l 1
 104 4 l 1
 104 796 l 1
210 701 m 1
 210 99 l 1
 436 99 l 1
 558 353 l 1
 285 353 l 1
 341 469 397 585 452 701 c 1
 210 701 l 1
564 701 m 1
 442 447 l 1
 715 447 l 1
 659 331 603 215 548 99 c 1
 790 99 l 1
 790 701 l 1
 564 701 l 1
EndSplineSet
Validated: 1
EndChar

StartChar: uF1949
Encoding: 989513 989513 66
Width: 1000
Flags: W
HStem: 342 95<482.925 646.632> 755 95<481.715 650.607>
VStem: 300 106<113.167 262.375 511.596 679.956> 724 105<-14 262.839 511.691 680.178>
LayerCount: 2
Fore
SplineSet
724 596 m 0
 724 685 666 755 565 755 c 0
 463 755 406 684 406 596 c 0
 406 504 467 437 565 437 c 0
 662 437 724 503 724 596 c 0
300 596 m 0
 300 738 396 850 564 850 c 0
 733 850 829 738 829 596 c 0
 829 548 818 473 758 414 c 1
 758 414 740 399 740 400 c 1
 708 390 l 1
 740 378 l 1
 758 363 l 1
 781 339 829 279 829 173 c 2
 829 -14 l 1
 724 -14 l 1
 724 173 l 2
 724 267 666 342 565 342 c 0
 463 342 406 267 406 173 c 2
 406 -14 l 1
 286 -14 l 1
 81 246 l 1
 161 309 l 1
 234 216 l 1
 312 79 l 1
 300 161 l 1
 300 173 l 2
 300 221 311 300 372 363 c 1
 389 377 l 1
 390 377 422 387 422 387 c 1
 390 399 l 1
 371 414 l 1
 340 444 300 502 300 596 c 0
EndSplineSet
Validated: 1
EndChar

StartChar: uF194B
Encoding: 989515 989515 67
Width: 1000
Flags: W
LayerCount: 2
Fore
SplineSet
303 850 m 1
 496 659 l 1
 689 850 l 1
 760 779 l 1
 496 517 l 1
 232 779 l 1
 303 850 l 1
303 552 m 1
 496 360 l 1
 689 552 l 1
 760 481 l 1
 496 219 l 1
 232 481 l 1
 303 552 l 1
303 254 m 1
 496 62 l 1
 689 254 l 1
 760 182 l 1
 496 -79 l 1
 232 182 l 1
 303 254 l 1
EndSplineSet
Validated: 1
EndChar

StartChar: uF194C
Encoding: 989516 989516 68
Width: 1000
Flags: W
HStem: 438 96<474.102 653.721>
VStem: 273 106<108.091 336.829> 511 106<630 850> 750 105<-14 336.527>
LayerCount: 2
Fore
SplineSet
376 606 m 1
 288 555 l 1
 178 747 l 1
 266 798 l 1
 376 606 l 1
862 798 m 1
 950 747 l 1
 840 555 l 1
 752 606 l 1
 862 798 l 1
511 630 m 1
 511 850 l 1
 617 850 l 1
 617 630 l 1
 511 630 l 1
273 243 m 0
 273 405 378 534 564 534 c 0
 749 534 855 406 855 243 c 0
 855 -14 l 1
 750 -14 l 1
 749 243 l 0
 749 352 682 438 564 438 c 0
 446 438 379 352 379 243 c 0
 379 -14 l 1
 259 -14 l 1
 53 246 l 1
 133 309 l 1
 206 217 l 1
 284 79 l 1
 273 159 l 1
 273 243 l 0
EndSplineSet
Validated: 1
EndChar

StartChar: uF194D
Encoding: 989517 989517 69
Width: 1000
Flags: W
HStem: -24 95<267 849>
VStem: 161 106<71 824>
LayerCount: 2
Fore
SplineSet
161 824 m 1
 267 824 l 1
 267 71 l 1
 849 71 l 1
 849 -24 l 1
 161 -24 l 1
 161 824 l 1
EndSplineSet
Validated: 1
EndChar

StartChar: uF1950
Encoding: 989520 989520 70
Width: 1000
Flags: W
HStem: -24 95<252 446 552 746> 729 95<252 446 552 746>
VStem: 446 106<71 729>
LayerCount: 2
Fore
SplineSet
252 824 m 1
 746 824 l 1
 746 729 l 1
 552 729 l 1
 552 71 l 1
 746 71 l 1
 746 -24 l 1
 252 -24 l 1
 252 71 l 1
 446 71 l 1
 446 729 l 1
 252 729 l 1
 252 824 l 1
EndSplineSet
Validated: 1
EndChar

StartChar: uF1951
Encoding: 989521 989521 71
Width: 1000
Flags: W
HStem: 60 97<294 448 554 708> 260 98<294 448 554 708> 460 98<294 448 554 708> 703 147<276.5 379.5 620.5 723.5>
VStem: 255 146<724.625 828.5> 448 106<-52 60 157 260 358 460 558 670> 599 146<724.625 828.5>
LayerCount: 2
Fore
SplineSet
448 670 m 1
 554 670 l 1
 554 558 l 1
 708 558 l 1
 708 460 l 1
 554 460 l 1
 554 358 l 1
 708 358 l 1
 708 260 l 1
 554 260 l 1
 554 157 l 1
 708 157 l 1
 708 60 l 1
 554 60 l 1
 554 -52 l 1
 448 -52 l 1
 448 60 l 1
 294 60 l 1
 294 157 l 1
 448 157 l 1
 448 260 l 1
 294 260 l 1
 294 358 l 1
 448 358 l 1
 448 460 l 1
 294 460 l 1
 294 558 l 1
 448 558 l 1
 448 670 l 1
599 777 m 0
 599 817 632 850 672 850 c 0
 712 850 745 817 745 777 c 0
 745 736 712 703 672 703 c 0
 632 703 599 736 599 777 c 0
255 777 m 0
 255 817 288 850 328 850 c 0
 368 850 401 817 401 777 c 0
 401 736 368 703 328 703 c 0
 288 703 255 736 255 777 c 0
EndSplineSet
Validated: 1
EndChar

StartChar: uF1952
Encoding: 989522 989522 72
Width: 1000
Flags: W
HStem: 208 95<182 622> 325 147<847.5 951.375>
VStem: 76 106<303 607> 622 106<303 607> 826 147<346.5 450.375>
LayerCount: 2
Fore
SplineSet
76 607 m 1
 182 607 l 1
 182 303 l 1
 622 303 l 1
 622 607 l 1
 728 607 l 1
 728 208 l 1
 76 208 l 1
 76 607 l 1
826 398 m 0
 826 439 859 472 899 472 c 0
 940 472 973 439 973 398 c 0
 973 358 940 325 899 325 c 0
 859 325 826 358 826 398 c 0
EndSplineSet
Validated: 1
EndChar

StartChar: uF1953
Encoding: 989523 989523 73
Width: 1000
Flags: W
HStem: -24 95<237 766>
VStem: 130 107<71 824> 766 106<71 824>
LayerCount: 2
Fore
SplineSet
131 824 m 1
 237 824 l 1
 237 71 l 1
 766 71 l 1
 766 824 l 1
 872 824 l 1
 872 -24 l 1
 130 -24 l 1
 131 824 l 1
EndSplineSet
Validated: 1
EndChar

StartChar: uF1954
Encoding: 989524 989524 74
Width: 1000
Flags: W
HStem: 165 96<394.503 604.058>
LayerCount: 2
Fore
SplineSet
805 543 m 1
 908 520 l 1
 891 459 l 1
 826 286 675 165 499 165 c 0
 324 165 173 286 108 459 c 1
 92 516 l 1
 195 540 l 1
 206 496 l 1
 254 358 367 261 499 261 c 0
 632 261 745 358 793 496 c 1
 805 543 l 1
EndSplineSet
Validated: 1
EndChar

StartChar: uF1955
Encoding: 989525 989525 75
Width: 1000
Flags: W
HStem: -25 82<211 789> 90 81<408.144 591.641> 213 81<464.689 535.1> 480 81<408.124 595.238> 589 116<465 546> 743 82<211 789>
VStem: 129 82<57 743> 251 81<246.211 407.597> 367 80<312.377 345.225> 465 81<589 705> 553 81<310.128 342.383> 669 81<243.147 407.503> 789 82<57 743>
LayerCount: 2
Fore
SplineSet
465 218 m 0
 411 236 377 286 367 344 c 1
 447 358 l 1
 453 323 473 301 490 296 c 0
 494 295 498 294 501 294 c 0
 522 294 546 318 553 357 c 1
 634 341 l 1
 619 264 563 213 500 213 c 0
 488 213 476 215 465 218 c 0
684 691 m 1
 750 644 l 1
 679 543 l 1
 613 590 l 1
 684 691 l 1
318 691 m 1
 389 590 l 1
 322 543 l 1
 251 644 l 1
 318 691 l 1
465 705 m 1
 546 705 l 1
 546 589 l 1
 465 589 l 1
 465 705 l 1
669 326 m 0
 669 414 610 480 500 480 c 0
 472 480 448 475 428 468 c 0
 407 460 390 449 376 436 c 0
 357 417 332 383 332 326 c 0
 332 302 336 281 344 263 c 0
 364 215 400 194 428 183 c 0
 448 175 472 171 500 171 c 0
 570 171 631 199 657 263 c 0
 665 281 669 302 669 326 c 0
320 495 m 0
 349 524 406 561 500 561 c 0
 547 561 623 551 681 495 c 0
 700 477 750 423 750 326 c 0
 750 293 744 261 732 232 c 0
 717 195 660 90 500 90 c 0
 349 90 251 190 251 326 c 0
 251 367 260 438 320 495 c 0
211 743 m 1
 211 57 l 1
 789 57 l 1
 789 743 l 1
 211 743 l 1
129 825 m 1
 871 825 l 1
 871 -25 l 1
 129 -25 l 1
 129 825 l 1
EndSplineSet
Validated: 1
EndChar

StartChar: uF1956
Encoding: 989526 989526 76
Width: 1000
Flags: W
HStem: 178 96<211 789> 526 96<211 789>
LayerCount: 2
Fore
SplineSet
211 274 m 1
 789 274 l 1
 789 178 l 1
 211 178 l 1
 211 274 l 1
211 622 m 1
 789 622 l 1
 789 526 l 1
 211 526 l 1
 211 622 l 1
EndSplineSet
Validated: 1
EndChar

StartChar: uF1957
Encoding: 989527 989527 77
Width: 1000
Flags: W
HStem: -13 147<448.125 551.875>
VStem: 427 146<8.5 112.375> 447 106<267 804>
LayerCount: 2
Fore
SplineSet
805 601 m 1x80
 895 550 l 1
 701 208 l 1
 611 259 l 1
 805 601 l 1x80
195 600 m 1
 389 259 l 1
 299 207 l 1
 105 549 l 1
 195 600 l 1
447 804 m 1xa0
 553 804 l 1
 553 267 l 1
 447 267 l 1
 447 804 l 1xa0
573 60 m 0xc0
 573 20 541 -13 500 -13 c 0
 459 -13 427 20 427 60 c 0
 427 101 459 134 500 134 c 0
 541 134 573 101 573 60 c 0xc0
EndSplineSet
Validated: 1
EndChar

StartChar: uF1958
Encoding: 989528 989528 78
Width: 1000
Flags: W
HStem: 193 401<76 182 293 399 601 707 818 924> 498 96<182 293 399 601 707 818>
VStem: 76 106<193 498> 293 106<193 498> 601 106<193 498> 818 106<193 498>
LayerCount: 2
Fore
SplineSet
76 594 m 1xbc
 924 594 l 1
 924 193 l 1
 818 193 l 1xbc
 818 498 l 1
 707 498 l 1x7c
 707 193 l 1
 601 193 l 1xbc
 601 498 l 1
 399 498 l 1x7c
 399 193 l 1
 293 193 l 1xbc
 293 498 l 1
 182 498 l 1x7c
 182 193 l 1
 76 193 l 1
 76 594 l 1xbc
EndSplineSet
Validated: 1
EndChar

StartChar: uF1959
Encoding: 989529 989529 79
Width: 1000
Flags: W
HStem: -50 146<430.5 533> 753 96<379.797 604.877>
VStem: 409 145<-28.875 74.875> 429 106<210 343.003> 666 103<554.045 699.974>
LayerCount: 2
Fore
SplineSet
409 23 m 0xe8
 409 64 442 96 482 96 c 0
 522 96 554 64 554 23 c 0
 554 -18 522 -50 482 -50 c 0
 442 -50 409 -18 409 23 c 0xe8
274 791 m 1
 307 808 393 849 506 849 c 0
 669 849 769 763 769 630 c 0
 769 457 611 372 535 333 c 1
 535 210 l 1
 429 210 l 1
 429 396 l 1xd8
 665 492 666 598 666 632 c 0
 666 742 552 753 504 753 c 0
 451 753 383 740 321 705 c 1
 274 791 l 1
EndSplineSet
Validated: 1
EndChar

StartChar: uF195B
Encoding: 989531 989531 80
Width: 1000
Flags: W
HStem: 729 95<183 448 554 818>
VStem: 78 105<-24 729> 448 106<-24 729> 818 106<-24 729>
LayerCount: 2
Fore
SplineSet
78 824 m 1
 924 824 l 1
 924 -24 l 1
 818 -24 l 1
 818 729 l 1
 554 729 l 1
 554 -24 l 1
 448 -24 l 1
 448 729 l 1
 183 729 l 1
 183 -24 l 1
 78 -24 l 1
 78 824 l 1
EndSplineSet
Validated: 1
EndChar

StartChar: uF195C
Encoding: 989532 989532 81
Width: 1000
Flags: W
HStem: -50 95<375.465 622.89> 159 95<426.128 573.474> 546 95<425.553 574.049> 755 95<371.494 626.895>
VStem: 50 106<269.397 533.344> 259 106<315.65 484.389> 635 106<318.302 484.807> 844 106<268.808 533.921>
LayerCount: 2
Fore
SplineSet
259 401 m 0
 259 535 346 641 500 641 c 0
 653 641 741 536 741 401 c 0
 741 259 647 159 500 159 c 0
 352 159 259 260 259 401 c 0
635 400 m 0
 635 482 586 546 500 546 c 0
 413 546 365 481 365 400 c 0
 365 315 417 254 500 254 c 0
 582 254 635 315 635 400 c 0
50 401 m 0
 50 651 212 850 499 850 c 0
 786 850 950 653 950 401 c 0
 950 137 774 -50 499 -50 c 0
 225 -50 50 138 50 401 c 0
844 401 m 0
 844 599 719 755 499 755 c 0
 280 755 156 598 156 401 c 0
 156 194 289 45 499 45 c 0
 709 45 844 192 844 401 c 0
EndSplineSet
Validated: 1
EndChar

StartChar: uF195D
Encoding: 989533 989533 82
Width: 1000
Flags: W
HStem: 208 94<78 379 621 924>
VStem: 448 106<384 672>
LayerCount: 2
Fore
SplineSet
448 384 m 1
 448 672 l 1
 554 672 l 1
 554 384 l 1
 448 384 l 1
621 208 m 1
 621 302 l 1
 924 302 l 1
 924 208 l 1
 621 208 l 1
78 208 m 1
 78 302 l 1
 379 302 l 1
 379 208 l 1
 78 208 l 1
EndSplineSet
Validated: 1
EndChar

StartChar: uF195E
Encoding: 989534 989534 83
Width: 1000
Flags: W
HStem: -44 96<418.649 580.37> 377 93<423.882 582.235>
VStem: 243 104<125.119 303.176> 654 103<127.878 301.03>
LayerCount: 2
Fore
SplineSet
459 850 m 1
 541 793 l 1
 464 683 406 567 374 430 c 1
 370 409 l 1
 391 429 l 1
 427 455 471 470 527 470 c 0
 583 470 757 451 757 210 c 0
 757 194 756 178 755 160 c 1
 734 43 643 -44 500 -44 c 0
 464 -44 280 -34 246 160 c 1
 244 183 243 206 243 229 c 0
 243 499 373 728 459 850 c 1
654 215 m 0
 654 306 598 377 500 377 c 0
 402 377 347 305 347 215 c 0
 347 119 406 52 500 52 c 0
 593 52 654 119 654 215 c 0
EndSplineSet
Validated: 1
EndChar

StartChar: uF195F
Encoding: 989535 989535 84
Width: 1000
Flags: W
HStem: -24 95<216 510> 327 146<736.5 839> 729 95<216 510>
VStem: 510 106<71 729> 715 145<348.125 451.875>
CounterMasks: 1 e0
LayerCount: 2
Fore
SplineSet
216 824 m 1
 616 824 l 1
 616 -24 l 1
 216 -24 l 1
 216 71 l 1
 510 71 l 1
 510 729 l 1
 216 729 l 1
 216 824 l 1
715 400 m 0
 715 441 748 473 788 473 c 0
 828 473 860 441 860 400 c 0
 860 359 828 327 788 327 c 0
 748 327 715 359 715 400 c 0
EndSplineSet
Validated: 1
EndChar

StartChar: uF1960
Encoding: 989536 989536 85
Width: 1000
Flags: W
HStem: -24 95<236 766> 338 145<288.875 378.625 456.875 546.625 624.375 713.25> 729 95<236 766>
VStem: 130 106<71 729> 270 127<357.075 464.378> 438 127<357.075 464.378> 606 126<357.075 464.378> 766 106<71 729>
LayerCount: 2
Fore
SplineSet
130 824 m 1
 872 824 l 1
 872 -24 l 1
 130 -24 l 1
 130 824 l 1
236 729 m 1
 236 71 l 1
 766 71 l 1
 766 729 l 1
 236 729 l 1
438 411 m 0
 438 451 467 483 502 483 c 0
 537 483 565 451 565 411 c 0
 565 371 537 338 502 338 c 0
 467 338 438 371 438 411 c 0
606 411 m 0
 606 451 634 483 669 483 c 0
 703 483 732 451 732 411 c 0
 732 371 703 338 669 338 c 0
 634 338 606 371 606 411 c 0
270 411 m 0
 270 451 299 483 334 483 c 0
 369 483 397 451 397 411 c 0
 397 371 369 338 334 338 c 0
 299 338 270 371 270 411 c 0
EndSplineSet
Validated: 1
EndChar

StartChar: uF1961
Encoding: 989537 989537 86
Width: 1000
Flags: W
HStem: -24 91<307 692> 496 92<307 692>
VStem: 205 102<67 496> 446 106<628 850> 692 101<67 496>
LayerCount: 2
Fore
SplineSet
446 628 m 1
 446 850 l 1
 552 850 l 1
 552 628 l 1
 446 628 l 1
351 658 m 1
 263 607 l 1
 152 799 l 1
 240 850 l 1
 351 658 l 1
751 850 m 1
 839 799 l 1
 728 607 l 1
 640 658 l 1
 751 850 l 1
205 588 m 1
 793 588 l 1
 793 -24 l 1
 205 -24 l 1
 205 588 l 1
307 496 m 1
 307 67 l 1
 692 67 l 1
 692 496 l 1
 307 496 l 1
EndSplineSet
Validated: 1
EndChar

StartChar: uF1962
Encoding: 989538 989538 87
Width: 1000
Flags: W
HStem: -24 318<76 161 246 330 415 500 585 669> 199 95<669 749.381> 438 147<405.5 508 614.5 717> 729 95<76 747.171>
VStem: 76 85<-24 294> 246 84<-24 294> 384 145<459.5 563.375> 415 85<-24 294> 585 84<-24 199> 593 145<459.5 563.375> 844 106<400.216 622.916>
LayerCount: 2
Fore
SplineSet
76 -24 m 1xbc20
 76 294 l 1
 161 294 l 1
 161 -24 l 1
 76 -24 l 1xbc20
246 -24 m 1
 246 294 l 1
 330 294 l 1
 330 -24 l 1
 246 -24 l 1
415 -24 m 1xbd20
 415 294 l 1
 500 294 l 1
 500 -24 l 1
 415 -24 l 1xbd20
844 512 m 0
 844 634 781 729 669 729 c 2
 76 729 l 1
 76 824 l 1
 669 824 l 2
 848 824 950 687 950 512 c 0
 950 329 840 199 669 199 c 1x7ca0
 669 -24 l 1
 585 -24 l 1
 585 294 l 1
 669 294 l 2xbca0
 776 294 844 384 844 512 c 0
593 511 m 0x3c60
 593 552 626 585 666 585 c 0
 706 585 738 552 738 511 c 0
 738 471 706 438 666 438 c 0
 626 438 593 471 593 511 c 0x3c60
384 511 m 0x3e20
 384 552 417 585 457 585 c 0
 497 585 529 552 529 511 c 0
 529 471 497 438 457 438 c 0
 417 438 384 471 384 511 c 0x3e20
EndSplineSet
Validated: 1
EndChar

StartChar: uF1963
Encoding: 989539 989539 88
Width: 1000
Flags: W
LayerCount: 2
Fore
SplineSet
118 848 m 1
 135 835 201 753 201 752 c 0
 349 555 430 338 500 128 c 1
 576 356 656 561 799 753 c 0
 824 782 848 811 872 840 c 0
 880 846 880 846 882 848 c 2
 948 773 l 1
 946 770 946 770 880 689 c 1
 802 584 743 473 693 355 c 0
 643 235 602 109 561 -14 c 2
 550 -50 l 1
 512 -50 l 2
 506 -50 499 -50 488 -50 c 2
 450 -50 l 1
 439 -14 l 2
 353 246 277 480 120 689 c 1
 54 770 54 770 52 773 c 2
 118 848 l 1
EndSplineSet
Validated: 1
EndChar

StartChar: uF1964
Encoding: 989540 989540 89
Width: 1000
Flags: W
HStem: -35 228<447.095 552.572> 352 96<50 202 798 950> 607 228<450.517 549.483>
VStem: 50 254<352.118 447.594> 447 106<-35 102 698 835> 696 254<357.035 447.905>
CounterMasks: 1 fc
LayerCount: 2
Fore
SplineSet
447 835 m 1
 553 835 l 1
 553 698 l 1
 566 696 l 1
 616 687 765 646 796 464 c 1
 798 448 l 1
 950 448 l 1
 950 352 l 1
 798 352 l 1
 796 337 l 1
 788 289 747 137 566 104 c 1
 553 103 l 1
 553 -35 l 1
 447 -35 l 1
 447 102 l 1
 434 104 l 1
 317 125 226 208 204 337 c 1
 202 352 l 1
 50 352 l 1
 50 448 l 1
 202 448 l 1
 204 464 l 1
 212 512 253 664 434 696 c 1
 447 698 l 1
 447 835 l 1
696 401 m 0
 696 516 625 607 500 607 c 0
 375 607 304 515 304 401 c 0
 304 280 380 193 500 193 c 0
 619 193 696 279 696 401 c 0
EndSplineSet
Validated: 1
EndChar

StartChar: uF1965
Encoding: 989541 989541 90
Width: 1000
Flags: W
HStem: 499 95<76 242 348 652 758 924>
VStem: 242 106<193 499> 652 106<193 499>
LayerCount: 2
Fore
SplineSet
76 594 m 1
 924 594 l 1
 924 499 l 1
 758 499 l 1
 758 193 l 1
 652 193 l 1
 652 499 l 1
 348 499 l 1
 348 193 l 1
 242 193 l 1
 242 499 l 1
 76 499 l 1
 76 594 l 1
EndSplineSet
Validated: 1
EndChar

StartChar: uF1966
Encoding: 989542 989542 91
Width: 1000
Flags: W
HStem: 126 146<448.5 551.5>
VStem: 427 146<147.125 250.5>
LayerCount: 2
Fore
SplineSet
751 694 m 1
 950 439 l 1
 871 377 l 1
 751 530 l 1
 632 377 l 1
 553 439 l 1
 751 694 l 1
249 694 m 1
 447 439 l 1
 368 377 l 1
 249 530 l 1
 129 377 l 1
 50 439 l 1
 249 694 l 1
427 199 m 0
 427 239 460 272 500 272 c 0
 540 272 573 239 573 199 c 0
 573 158 540 126 500 126 c 0
 460 126 427 158 427 199 c 0
EndSplineSet
Validated: 1
EndChar

StartChar: uF1968
Encoding: 989544 989544 92
Width: 1000
Flags: W
HStem: 352 96<244 612>
VStem: 612 106<-24 352 448 824>
LayerCount: 2
Fore
SplineSet
612 824 m 1
 718 824 l 1
 718 -24 l 1
 612 -24 l 1
 612 352 l 1
 244 352 l 1
 244 448 l 1
 612 448 l 1
 612 824 l 1
EndSplineSet
Validated: 1
EndChar

StartChar: uF1969
Encoding: 989545 989545 93
Width: 1000
Flags: W
HStem: -24 95<202 435 712 922>
LayerCount: 2
Fore
SplineSet
524 850 m 1
 712 71 l 1
 922 71 l 1
 922 -24 l 1
 631 -24 l 1
 464 703 l 1
 202 71 l 1
 435 71 l 1
 435 -24 l 1
 50 -24 l 1
 426 850 l 1
 524 850 l 1
EndSplineSet
Validated: 1
EndChar

StartChar: uF196A
Encoding: 989546 989546 94
Width: 1000
Flags: W
HStem: 86 95<600.854 739.959> 298 96<251.903 389.923> 404 96<610.362 745.471> 618 96<258.83 398.146>
LayerCount: 2
Fore
SplineSet
73 185 m 1
 112 308 214 394 324 394 c 0
 385 394 447 368 503 309 c 0
 538 272 563 233 593 208 c 0
 594 207 628 181 673 181 c 0
 721 181 781 210 830 329 c 1
 925 289 l 1
 859 135 759 86 672 86 c 0
 617 86 567 105 533 131 c 0
 503 153 480 181 459 207 c 0
 419 255 384 298 319 298 c 0
 258 298 191 243 164 157 c 1
 73 185 l 1
926 614 m 1
 887 491 785 404 674 404 c 0
 614 404 552 430 496 490 c 0
 460 527 436 566 406 591 c 0
 405 592 371 618 326 618 c 0
 278 618 217 589 168 469 c 1
 73 509 l 1
 140 664 240 714 327 714 c 0
 382 714 432 694 466 669 c 0
 493 648 514 624 540 593 c 0
 580 544 615 500 680 500 c 0
 741 500 808 556 835 643 c 1
 926 614 l 1
EndSplineSet
Validated: 1
EndChar

StartChar: uF196B
Encoding: 989547 989547 95
Width: 1000
Flags: W
HStem: -50 95<375.465 622.89> 307 85<548 709> 755 95<371.494 626.895>
VStem: 50 106<269.397 533.344> 453 95<392 664> 844 106<268.808 533.921>
LayerCount: 2
Fore
SplineSet
453 664 m 1
 548 664 l 1
 548 392 l 1
 709 392 l 1
 709 307 l 1
 453 307 l 1
 453 664 l 1
50 401 m 0
 50 651 212 850 499 850 c 0
 786 850 950 653 950 401 c 0
 950 137 774 -50 499 -50 c 0
 225 -50 50 138 50 401 c 0
844 401 m 0
 844 599 719 755 499 755 c 0
 280 755 156 598 156 401 c 0
 156 194 289 45 499 45 c 0
 709 45 844 192 844 401 c 0
EndSplineSet
Validated: 1
EndChar

StartChar: uF196C
Encoding: 989548 989548 96
Width: 1000
Flags: W
HStem: -50 95<395.001 604.059> 473 95<396.172 607.038>
VStem: 169 106<164.12 358.13> 461 106<628 850> 725 106<163.716 355.117>
LayerCount: 2
Fore
SplineSet
169 260 m 0
 169 431 288 568 499 568 c 0
 711 568 831 433 831 260 c 0
 831 78 702 -50 499 -50 c 0
 297 -50 169 79 169 260 c 0
725 260 m 0
 725 379 643 473 500 473 c 0
 356 473 275 378 275 260 c 0
 275 135 362 45 500 45 c 0
 637 45 725 134 725 260 c 0
350 635 m 1
 262 584 l 1
 151 776 l 1
 239 826 l 1
 350 635 l 1
781 826 m 1
 869 776 l 1
 759 584 l 1
 671 635 l 1
 781 826 l 1
461 628 m 1
 461 850 l 1
 567 850 l 1
 567 628 l 1
 461 628 l 1
EndSplineSet
Validated: 1
EndChar

StartChar: uF196D
Encoding: 989549 989549 97
Width: 1000
Flags: W
HStem: -24 95<183 818>
VStem: 78 105<71 418> 818 106<71 418>
LayerCount: 2
Fore
SplineSet
501 879 m 1
 924 456 l 1
 924 -24 l 1
 78 -24 l 1
 78 456 l 1
 501 879 l 1
501 736 m 1
 183 418 l 1
 183 71 l 1
 818 71 l 1
 818 418 l 1
 501 736 l 1
EndSplineSet
Validated: 1
EndChar

StartChar: uF196E
Encoding: 989550 989550 98
Width: 1000
Flags: W
VStem: 296 106<79 721> 598 106<79 721>
LayerCount: 2
Fore
SplineSet
296 79 m 1
 296 721 l 1
 402 721 l 1
 402 79 l 1
 296 79 l 1
598 79 m 1
 598 721 l 1
 704 721 l 1
 704 79 l 1
 598 79 l 1
EndSplineSet
Validated: 1
EndChar

StartChar: uF196F
Encoding: 989551 989551 99
Width: 1000
Flags: W
HStem: -50 96<449.131 551.012> 279 97<406.167 593.954> 754 96<182.13 355.277 646.75 820.348>
VStem: 49 105<599.514 726.981> 283 105<132.451 298.549> 612 105<132.891 298.201> 845 105<597.166 729.272>
LayerCount: 2
Fore
SplineSet
388 299 m 1
 388 296 388 292 388 289 c 0
 388 195 409 46 500 46 c 0
 591 46 612 195 612 288 c 0
 612 292 612 295 612 299 c 1
 573 286 537 279 500 279 c 0
 465 279 428 286 388 299 c 1
397 402 m 1
 435 384 467 376 500 376 c 0
 532 376 564 384 603 402 c 1
 593 473 571 579 500 645 c 1
 479 626 422 572 397 402 c 1
584 704 m 1
 625 664 671 596 700 459 c 1
 702 460 845 569 845 669 c 0
 845 685 842 699 835 714 c 0
 821 741 790 754 750 754 c 0
 702 754 642 736 584 704 c 1
416 704 m 1
 353 739 298 754 254 754 c 0
 192 754 154 723 154 672 c 0
 154 643 167 608 194 568 c 0
 209 545 242 503 300 459 c 1
 308 498 334 623 416 704 c 1
283 295 m 0
 283 302 283 319 285 347 c 1
 167 418 49 546 49 670 c 0
 49 702 58 735 76 766 c 0
 98 802 145 850 246 850 c 0
 280 850 381 843 500 769 c 1
 535 791 640 850 754 850 c 0
 898 850 950 752 950 670 c 0
 950 548 840 422 715 347 c 1
 716 336 717 318 717 295 c 0
 717 93 638 -50 500 -50 c 0
 363 -50 283 92 283 295 c 0
EndSplineSet
Validated: 1
EndChar

StartChar: uF1970
Encoding: 989552 989552 100
Width: 1000
Flags: W
HStem: 48 145<449.5 552> 279 96<413.595 588.11> 606 91<236 765>
VStem: 428 145<69 171.5>
LayerCount: 2
Fore
SplineSet
428 120 m 0
 428 160 461 193 501 193 c 0
 541 193 573 160 573 120 c 0
 573 80 541 48 501 48 c 0
 461 48 428 80 428 120 c 0
109 697 m 1
 893 697 l 1
 886 665 l 1
 823 438 674 279 501 279 c 0
 327 279 179 438 115 665 c 1
 109 697 l 1
236 606 m 1
 257 560 l 1
 316 447 404 375 501 375 c 0
 598 375 685 447 744 560 c 1
 765 606 l 1
 236 606 l 1
EndSplineSet
Validated: 1
EndChar

StartChar: uF1971
Encoding: 989553 989553 101
Width: 1000
Flags: W
LayerCount: 2
Fore
SplineSet
244 799 m 1
 500 455 l 1
 756 799 l 1
 836 739 l 1
 562 372 l 1
 742 128 l 1
 865 346 l 1
 950 293 l 1
 743 -37 l 1
 500 289 l 1
 257 -37 l 1
 50 293 l 1
 135 346 l 1
 258 128 l 1
 438 372 l 1
 164 739 l 1
 244 799 l 1
EndSplineSet
Validated: 1
EndChar

StartChar: uF1972
Encoding: 989554 989554 102
Width: 1000
Flags: W
HStem: 4 96<198 804>
LayerCount: 2
Fore
SplineSet
501 828 m 1
 572 705 643 582 713 459 c 1
 900 567 l 1
 951 479 l 1
 764 371 l 1
 976 4 l 1
 26 4 l 1
 237 371 l 1
 50 479 l 1
 101 567 l 1
 288 459 l 1
 359 582 430 705 501 828 c 1
501 624 m 1
 198 100 l 1
 804 100 l 1
 501 624 l 1
EndSplineSet
Validated: 1
EndChar

StartChar: uF1973
Encoding: 989555 989555 103
Width: 1000
VWidth: 1630
Flags: W
VStem: 479 106<-50 681>
LayerCount: 2
Fore
SplineSet
479 824 m 1
 585 824 l 1
 585 -50 l 1
 479 -50 l 1
 479 681 l 1
 269 472 l 1
 197 544 l 1
 479 824 l 1
EndSplineSet
Validated: 1
EndChar

StartChar: uF1974
Encoding: 989556 989556 104
Width: 1000
Flags: W
HStem: 234 95<467 737> 407 147<192.786 287.644 385.5 488>
VStem: 168 145<425.5 529.375> 362 105<-50 234> 364 145<428.5 532.375>
LayerCount: 2
Fore
SplineSet
364 480 m 0xe8
 364 521 397 554 437 554 c 0
 477 554 509 521 509 480 c 0
 509 440 477 407 437 407 c 0
 397 407 364 440 364 480 c 0xe8
168 477 m 0
 168 518 200 551 240 551 c 0
 280 551 313 518 313 477 c 0
 313 437 280 404 240 404 c 0
 200 404 168 437 168 477 c 0
429 850 m 1
 832 372 l 1
 832 234 l 1
 467 234 l 1
 467 -50 l 1
 362 -50 l 1
 362 329 l 1xf0
 737 329 l 1
 352 785 l 1
 429 850 l 1
EndSplineSet
Validated: 1
EndChar

StartChar: uF1975
Encoding: 989557 989557 105
Width: 1000
Flags: W
HStem: -0 95<426.983 572.618> 446 96<425.036 571.56>
VStem: 251 105<174.028 367.075> 644 105<173.828 367.275>
LayerCount: 2
Fore
SplineSet
644 271 m 0
 644 369 591 446 500 446 c 0
 408 446 356 369 356 271 c 0
 356 168 412 95 500 95 c 0
 587 95 644 168 644 271 c 0
251 271 m 0
 251 422 341 542 500 542 c 0
 659 542 749 423 749 271 c 0
 749 112 652 -0 500 -0 c 0
 347 -0 251 113 251 271 c 0
155 785 m 1
 221 224 l 1
 115 212 l 1
 50 773 l 1
 155 785 l 1
845 785 m 1
 950 773 l 1
 885 212 l 1
 779 224 l 1
 845 785 l 1
EndSplineSet
Validated: 1
EndChar

StartChar: uF1976
Encoding: 989558 989558 106
Width: 1000
Flags: W
LayerCount: 2
Fore
SplineSet
330 302 m 1
 402 230 l 1
 122 -50 l 1
 50 22 l 1
 330 302 l 1
671 302 m 1
 952 22 l 1
 880 -50 l 1
 599 230 l 1
 671 302 l 1
880 850 m 1
 952 778 l 1
 671 498 l 1
 599 570 l 1
 880 850 l 1
122 850 m 1
 402 570 l 1
 330 498 l 1
 50 778 l 1
 122 850 l 1
EndSplineSet
Validated: 1
EndChar

StartChar: uF1990
Encoding: 989584 989584 113
Width: 1000
VWidth: 1231
Flags: W
HStem: -198 95<853.816 1000> 903 95<850.36 1000>
VStem: 402 106<245.76 563.064>
LayerCount: 2
Fore
SplineSet
1000 -198 m 1
 634 -198 402 52 402 402 c 0
 402 513 431 827 751 954 c 0
 825 984 908 998 1000 998 c 1
 1000 903 l 1
 686 903 508 681 508 401 c 0
 508 108 699 -103 1000 -103 c 1
 1000 -198 l 1
EndSplineSet
Validated: 1
EndChar

StartChar: uF1991
Encoding: 989585 989585 114
Width: 1000
VWidth: 1231
Flags: W
HStem: -198 95<0 157.177> 903 95<0 149.64>
VStem: 492 106<245.342 557.484>
LayerCount: 2
Fore
SplineSet
492 401 m 0
 492 681 314 903 0 903 c 1
 0 998 l 1
 382 998 598 734 598 402 c 0
 598 280 565 -25 248 -153 c 0
 175 -183 92 -198 0 -198 c 1
 0 -103 l 1
 301 -103 492 108 492 401 c 0
EndSplineSet
Validated: 1
EndChar

StartChar: uF1992
Encoding: 989586 989586 115
Width: 0
VWidth: 1630
Flags: W
HStem: -198 95<-1000 0> 903 95<-1000 0>
LayerCount: 2
Fore
SplineSet
-1000 -103 m 1
 -0 -103 l 1
 -0 -198 l 1
 -1000 -198 l 1
 -1000 -103 l 1
-1000 998 m 1
 -0 998 l 1
 -0 903 l 1
 -1000 903 l 1
 -1000 998 l 1
EndSplineSet
Validated: 1
EndChar

StartChar: uF1993
Encoding: 989587 989587 116
Width: 1000
VWidth: 1630
Flags: W
HStem: -198 95<553 1000>
VStem: 447 106<-103 850>
LayerCount: 2
Fore
SplineSet
447 850 m 1
 553 850 l 1
 553 -103 l 1
 1000 -103 l 1
 1000 -198 l 1
 447 -198 l 1
 447 -195 l 1
 447 850 l 1
EndSplineSet
Validated: 1
EndChar

StartChar: uF1994
Encoding: 989588 989588 117
Width: 0
VWidth: 1630
Flags: W
HStem: -198 95<-1000 0>
LayerCount: 2
Fore
SplineSet
-1000 -103 m 1
 -0 -103 l 1
 -0 -198 l 1
 -1000 -198 l 1
 -1000 -103 l 1
EndSplineSet
Validated: 1
EndChar

StartChar: uF1999
Encoding: 989593 989593 122
Width: 0
VWidth: 1630
Flags: W
HStem: -198 95<-1000 0>
LayerCount: 2
Fore
SplineSet
-1000 -103 m 1
 -0 -103 l 1
 -0 -198 l 1
 -1000 -198 l 1
 -1000 -103 l 1
EndSplineSet
Validated: 1
EndChar

StartChar: uF199C
Encoding: 989596 989596 125
Width: 1000
Flags: W
HStem: 306 188<440.172 559.828>
VStem: 406 188<340.172 459.828>
LayerCount: 2
Fore
SplineSet
406 400 m 0
 406 452 448 494 500 494 c 0
 552 494 594 452 594 400 c 0
 594 348 552 306 500 306 c 0
 448 306 406 348 406 400 c 0
EndSplineSet
Validated: 1
EndChar

StartChar: uF199D
Encoding: 989597 989597 126
Width: 1000
Flags: W
HStem: 115 163<444.979 555.021> 522 163<444.979 555.021>
VStem: 418 164<141.432 251.021 548.979 658.568>
LayerCount: 2
Fore
SplineSet
418 604 m 0
 418 649 455 685 500 685 c 0
 545 685 582 649 582 604 c 0
 582 559 545 522 500 522 c 0
 455 522 418 559 418 604 c 0
418 196 m 0
 418 241 455 278 500 278 c 0
 545 278 582 241 582 196 c 0
 582 151 545 115 500 115 c 0
 455 115 418 151 418 196 c 0
EndSplineSet
Validated: 1
EndChar

StartChar: uF195A
Encoding: 989530 989530 127
Width: 1000
HStem: 19 95<287.862 351.596 508.707 558.294>
VStem: 159 106<225.611 334> 376 106<143.566 363> 599 105<267.992 565> 818 106<38 762>
LayerCount: 2
Fore
SplineSet
818 762 m 1
 924 762 l 1
 924 38 l 1
 818 38 l 1
 818 762 l 1
48 103 m 1
 131 166 159 264 159 334 c 1
 265 334 l 1
 265 306 l 2
 265 137 289 115 322 114 c 0
 348 114 376 133 376 363 c 1
 482 363 l 1
 482 337 l 2
 482 157 503 117 543 116 c 0
 559 116 575 152 585 214 c 0
 596 275 599 358 599 460 c 0
 599 501 599 539 598 565 c 1
 704 565 l 1
 704 557 704 547 704 537 c 0
 704 200 675 21 540 21 c 0
 538 21 536 21 535 21 c 0
 480 26 449 65 430 99 c 1
 395 26 349 19 326 19 c 0
 323 19 321 19 319 19 c 0
 298 19 230 21 191 135 c 1
 152 63 109 23 108 22 c 1
 48 103 l 1
EndSplineSet
Validated: 1
EndChar

StartChar: uF1983
Encoding: 989571 989571 128
Width: 1000
HStem: 23 96<394.503 604.058>
VStem: 446 106<514 777>
LayerCount: 2
Fore
SplineSet
805 402 m 1
 908 378 l 1
 891 317 l 1
 826 144 675 23 499 23 c 0
 324 23 173 144 108 317 c 1
 92 374 l 1
 195 398 l 1
 206 354 l 1
 254 216 367 119 499 119 c 0
 632 119 745 216 793 354 c 1
 805 402 l 1
446 514 m 1
 446 777 l 1
 552 777 l 1
 552 514 l 1
 446 514 l 1
783 723 m 1
 871 673 l 1
 740 445 l 1
 652 496 l 1
 783 723 l 1
128 673 m 1
 216 723 l 1
 347 496 l 1
 259 445 l 1
 128 673 l 1
EndSplineSet
Validated: 1
EndChar

StartChar: uF1979
Encoding: 989561 989561 129
Width: 1000
VStem: 446 106<410 850>
LayerCount: 2
Fore
SplineSet
446 410 m 1
 446 850 l 1
 552 850 l 1
 552 410 l 1
 446 410 l 1
449 362 m 1
 551 362 l 1
 543 221 l 1
 655 301 l 1
 665 283 675 266 685 249 c 2
 702 218 l 1
 661 198 620 178 579 157 c 1
 581 156 l 1
 579 155 l 1
 620 135 661 115 702 94 c 1
 655 12 l 1
 543 92 l 1
 551 -50 l 1
 449 -50 l 1
 457 92 l 1
 345 12 l 1
 329 39 313 67 298 94 c 1
 339 115 380 135 421 155 c 1
 419 156 l 1
 421 157 l 1
 298 218 l 1
 307 234 316 250 325 266 c 2
 345 301 l 1
 457 221 l 1
 449 362 l 1
EndSplineSet
Validated: 1
EndChar

StartChar: uF197B
Encoding: 989563 989563 130
Width: 1000
HStem: 110 147<666 768.5> 543 147<231.5 334>
VStem: 210 145<564.625 668.5> 645 145<131.5 235.375>
LayerCount: 2
Fore
SplineSet
645 183 m 0
 645 224 677 257 717 257 c 0
 757 257 790 224 790 183 c 0
 790 143 757 110 717 110 c 0
 677 110 645 143 645 183 c 0
210 617 m 0
 210 657 243 690 283 690 c 0
 323 690 355 657 355 617 c 0
 355 576 323 543 283 543 c 0
 243 543 210 576 210 617 c 0
180 151 m 1
 749 720 l 1
 820 649 l 1
 251 80 l 1
 180 151 l 1
EndSplineSet
Validated: 1
EndChar

StartChar: uF1984
Encoding: 989572 989572 131
Width: 1000
HStem: -50 95<394.549 604.059> 473 95<396.172 608.012>
VStem: 169 106<193.526 354.711> 461 106<628 850> 725 106<163.716 325.428>
LayerCount: 2
Fore
SplineSet
461 628 m 1
 461 850 l 1
 567 850 l 1
 567 628 l 1
 461 628 l 1
781 826 m 1
 869 776 l 1
 759 584 l 1
 671 635 l 1
 781 826 l 1
350 635 m 1
 262 584 l 1
 151 776 l 1
 239 826 l 1
 350 635 l 1
169 260 m 0
 169 432 288 568 499 568 c 0
 545 568 671 562 757 465 c 1
 871 531 l 1
 921 444 l 1
 809 379 l 1
 824 343 831 303 831 260 c 0
 831 78 702 -50 499 -50 c 0
 430 -50 321 -34 244 53 c 1
 129 -13 l 1
 79 74 l 1
 191 139 l 1
 176 176 169 216 169 260 c 0
665 412 m 1
 638 439 587 473 500 473 c 0
 356 473 275 378 275 260 c 0
 275 236 278 213 284 193 c 1
 665 412 l 1
500 45 m 0
 637 45 725 134 725 260 c 0
 725 283 722 305 716 326 c 1
 336 106 l 1
 363 79 414 45 500 45 c 0
EndSplineSet
Validated: 1
EndChar

StartChar: uF197C
Encoding: 989564 989564 132
Width: 1000
HStem: 4 95<210 790> 216 95<421 579> 489 95<421 579> 701 95<210 790>
VStem: 104 106<99 701> 316 105<311 489> 579 105<311 489> 790 106<99 701>
LayerCount: 2
Fore
SplineSet
104 796 m 1
 896 796 l 1
 896 4 l 1
 104 4 l 1
 104 796 l 1
210 701 m 1
 210 99 l 1
 790 99 l 1
 790 701 l 1
 210 701 l 1
316 584 m 1
 684 584 l 1
 684 216 l 1
 316 216 l 1
 316 584 l 1
421 489 m 1
 421 311 l 1
 579 311 l 1
 579 489 l 1
 421 489 l 1
EndSplineSet
Validated: 1
EndChar

StartChar: uF1982
Encoding: 989570 989570 133
Width: 1000
HStem: 327 146<448.125 551.875>
VStem: 210 106<43 754> 427 146<348.125 451.875> 684 106<46 757>
CounterMasks: 1 70
LayerCount: 2
Fore
SplineSet
500 473 m 0
 541 473 573 441 573 400 c 0
 573 359 541 327 500 327 c 0
 459 327 427 359 427 400 c 0
 427 441 459 473 500 473 c 0
210 754 m 1
 316 754 l 1
 316 43 l 1
 210 43 l 1
 210 754 l 1
790 46 m 1
 684 46 l 1
 684 757 l 1
 790 757 l 1
 790 46 l 1
EndSplineSet
Validated: 1
EndChar

StartChar: uF1967
Encoding: 989543 989543 134
Width: 1000
HStem: 212 96<341.316 408> 496 95<467.333 679.669>
VStem: 82 106<464.625 539> 844 106<210 329.038>
LayerCount: 2
Fore
SplineSet
172 369 m 1
 278 476 401 591 575 591 c 0
 635 591 746 577 839 486 c 0
 881 444 950 354 950 209 c 1
 844 210 l 1
 844 212 844 214 844 217 c 0
 844 384 723 496 571 496 c 0
 432 496 327 392 227 289 c 1
 408 308 l 1
 408 212 l 1
 82 212 l 1
 82 539 l 1
 188 539 l 1
 172 369 l 1
EndSplineSet
Validated: 1
EndChar

StartChar: uF1977
Encoding: 989559 989559 135
Width: 1000
HStem: 38 95<234.708 346.634 649.817 767.068>
VStem: 51 106<229.073 471.882> 444 106<243.24 307> 843 106<228.249 472.667>
LayerCount: 2
Fore
SplineSet
284 37 m 0
 166 39 51 163 51 348 c 0
 51 475 109 651 277 763 c 1
 333 679 l 1
 300 656 157 548 157 346 c 0
 157 234 212 133 288 133 c 0
 313 133 341 145 369 171 c 0
 408 207 440 264 444 307 c 1
 550 307 l 1
 556 246 631 133 711 133 c 0
 740 133 770 148 797 184 c 0
 827 224 843 281 843 345 c 0
 843 469 783 600 667 679 c 1
 723 763 l 1
 881 658 949 490 949 349 c 0
 949 175 845 45 722 38 c 0
 716 38 711 38 705 38 c 0
 618 38 543 113 498 186 c 1
 477 152 400 37 287 37 c 0
 286 37 285 37 284 37 c 0
EndSplineSet
Validated: 1
EndChar

StartChar: uF1926
Encoding: 989478 989478 136
Width: 1000
HStem: 352 96<50 386.7 613.6 950>
LayerCount: 2
Fore
SplineSet
319 815 m 1
 434 615 l 1
 500 476 l 1
 566 615 l 1
 681 815 l 1
 769 765 l 1
 653 565 l 1
 568 438 l 1
 720 448 l 1
 950 448 l 1
 950 352 l 1
 719 352 l 1
 568 362 l 1
 653 236 l 1
 769 35 l 1
 681 -15 l 1
 566 185 l 1
 500 323 l 1
 434 185 l 1
 319 -15 l 1
 231 35 l 1
 347 236 l 1
 432 362 l 1
 281 352 l 1
 50 352 l 1
 50 448 l 1
 281 448 l 1
 432 438 l 1
 347 564 l 1
 231 765 l 1
 319 815 l 1
EndSplineSet
Validated: 1
EndChar

StartChar: uF194F
Encoding: 989519 989519 137
Width: 1000
HStem: 5 96<198 307 425 575 693 804>
LayerCount: 2
Fore
SplineSet
501 829 m 1
 976 5 l 1
 26 5 l 1
 501 829 l 1
501 625 m 1
 439 518 l 1
 500 388 l 1
 562 519 l 1
 501 625 l 1
619 420 m 1
 559 321 l 1
 693 101 l 1
 804 101 l 1
 619 420 l 1
382 419 m 1
 198 101 l 1
 307 101 l 1
 441 321 l 1
 382 419 l 1
500 250 m 1
 425 101 l 1
 575 101 l 1
 500 250 l 1
EndSplineSet
Validated: 1
EndChar

StartChar: uF197E
Encoding: 989566 989566 138
Width: 1000
Flags: WO
HStem: 190 91<420.224 447 553 579.695> 576 95<417.38 581.466>
VStem: 247 106<348.349 511.736> 447 106<-50 193.264> 647 106<348.384 510.648>
CounterMasks: 1 38
LayerCount: 2
Fore
SplineSet
499 671 m 0
 562 671 605 656 635 639 c 1
 801 805 l 1
 876 730 l 1
 714 568 l 1
 734 536 753 491 753 429 c 0
 753 299 671 210 553 190 c 1
 553 -50 l 1
 447 -50 l 1
 447 190 l 1
 330 209 247 298 247 429 c 0
 247 451 248 510 286 568 c 1
 124 729 l 1
 199 804 l 1
 364 639 l 1
 393 655 436 671 499 671 c 0
647 429 m 0
 647 511 593 576 500 576 c 0
 406 576 353 511 353 429 c 0
 353 343 410 281 500 281 c 0
 589 281 647 342 647 429 c 0
EndSplineSet
Validated: 1
EndChar
